<svg xmlns="http://www.w3.org/2000/svg" xmlns:xlink="http://www.w3.org/1999/xlink" width="210" zoomAndPan="magnify" viewBox="0 0 157.5 33.749998" height="45" preserveAspectRatio="xMidYMid meet" version="1.0"><defs><g/><clipPath id="e68e941f53"><path d="M 16 4.667969 L 36 4.667969 L 36 12 L 16 12 Z M 16 4.667969 " clip-rule="nonzero"/></clipPath><clipPath id="74d84c1416"><path d="M 17 19 L 37 19 L 37 29.3125 L 17 29.3125 Z M 17 19 " clip-rule="nonzero"/></clipPath><clipPath id="b5fddaef15"><path d="M 11.585938 6 L 30 6 L 30 26 L 11.585938 26 Z M 11.585938 6 " clip-rule="nonzero"/></clipPath><clipPath id="ecaa9089ad"><path d="M 11.585938 10 L 41.460938 10 L 41.460938 27 L 11.585938 27 Z M 11.585938 10 " clip-rule="nonzero"/></clipPath></defs><g fill="#ffffff" fill-opacity="1"><g transform="translate(56.714677, 24.32794)"><g><path d="M 3.5625 -3.234375 C 2.875 -3.484375 2.164062 -3.828125 1.4375 -4.265625 C 1.363281 -4.304688 1.289062 -4.328125 1.21875 -4.328125 C 1.019531 -4.328125 0.882812 -4.238281 0.8125 -4.0625 L -0.1875 -2.078125 C -0.226562 -1.984375 -0.25 -1.898438 -0.25 -1.828125 C -0.25 -1.679688 -0.164062 -1.5625 0 -1.46875 C 1.519531 -0.632812 2.785156 -0.164062 3.796875 -0.0625 C 4.210938 -0.03125 4.523438 -0.015625 4.734375 -0.015625 C 5.640625 -0.015625 6.460938 -0.160156 7.203125 -0.453125 C 7.890625 -0.722656 8.441406 -1.164062 8.859375 -1.78125 C 9.285156 -2.394531 9.582031 -3.132812 9.75 -4 L 9.75 -4.015625 C 9.769531 -4.117188 9.78125 -4.285156 9.78125 -4.515625 C 9.78125 -6.179688 8.847656 -7.582031 6.984375 -8.71875 L 6.28125 -9.140625 C 5.925781 -9.347656 5.625 -9.582031 5.375 -9.84375 C 4.945312 -10.21875 4.734375 -10.65625 4.734375 -11.15625 C 4.734375 -11.457031 4.8125 -11.75 4.96875 -12.03125 C 5.144531 -12.5 5.453125 -12.695312 5.890625 -12.625 L 5.921875 -12.625 C 6.078125 -12.601562 6.179688 -12.457031 6.234375 -12.1875 C 6.273438 -11.632812 6.296875 -11.101562 6.296875 -10.59375 C 6.296875 -10.289062 6.445312 -10.140625 6.75 -10.140625 L 9.375 -10.140625 C 9.675781 -10.140625 9.828125 -10.28125 9.828125 -10.5625 C 9.847656 -11.050781 9.859375 -11.46875 9.859375 -11.8125 C 9.859375 -12.113281 9.847656 -12.382812 9.828125 -12.625 C 9.765625 -13.363281 9.566406 -13.941406 9.234375 -14.359375 C 8.566406 -15.171875 7.53125 -15.578125 6.125 -15.578125 C 5.726562 -15.578125 5.347656 -15.554688 4.984375 -15.515625 C 3.328125 -15.316406 2.125 -14.554688 1.375 -13.234375 C 0.832031 -12.328125 0.5625 -11.394531 0.5625 -10.4375 C 0.5625 -10.039062 0.609375 -9.640625 0.703125 -9.234375 C 0.847656 -8.597656 1.125 -8.09375 1.53125 -7.71875 C 1.53125 -7.71875 1.535156 -7.710938 1.546875 -7.703125 C 1.554688 -7.703125 1.5625 -7.703125 1.5625 -7.703125 C 2.300781 -7.085938 2.742188 -6.738281 2.890625 -6.65625 L 2.9375 -6.640625 L 3.390625 -6.359375 C 4.148438 -5.898438 4.644531 -5.578125 4.875 -5.390625 C 5.34375 -5.046875 5.578125 -4.613281 5.578125 -4.09375 C 5.578125 -3.757812 5.472656 -3.5 5.265625 -3.3125 C 5.066406 -3.132812 4.800781 -3.046875 4.46875 -3.046875 C 4.195312 -3.046875 3.894531 -3.109375 3.5625 -3.234375 Z M 7.21875 -12.9375 L 7.3125 -12.9375 L 7.3125 -12.890625 L 7.21875 -12.890625 Z M 7.8125 -12.171875 C 7.800781 -12.148438 7.78125 -12.140625 7.75 -12.140625 C 7.726562 -12.140625 7.726562 -12.15625 7.75 -12.1875 C 7.75 -12.1875 7.75 -12.191406 7.75 -12.203125 C 7.757812 -12.210938 7.765625 -12.21875 7.765625 -12.21875 L 7.796875 -12.265625 C 7.796875 -12.265625 7.796875 -12.257812 7.796875 -12.25 C 7.804688 -12.238281 7.8125 -12.234375 7.8125 -12.234375 L 7.859375 -12.21875 Z M 7.3125 -11.265625 C 7.3125 -11.234375 7.304688 -11.21875 7.296875 -11.21875 L 7.1875 -11.21875 C 7.1875 -11.28125 7.222656 -11.3125 7.296875 -11.3125 Z M 6.78125 -7.34375 C 6.800781 -7.3125 6.8125 -7.269531 6.8125 -7.21875 L 6.640625 -7.21875 C 6.640625 -7.21875 6.628906 -7.242188 6.609375 -7.296875 C 6.597656 -7.359375 6.609375 -7.425781 6.640625 -7.5 L 6.78125 -7.5 C 6.789062 -7.476562 6.796875 -7.441406 6.796875 -7.390625 Z M 5.796875 -7.34375 L 5.796875 -7.421875 L 6 -7.421875 L 6 -7.34375 Z M 7.046875 -7.203125 L 7 -7.1875 L 7 -7.15625 L 6.8125 -7.0625 C 6.757812 -7.15625 6.734375 -7.203125 6.734375 -7.203125 C 6.765625 -7.210938 6.804688 -7.21875 6.859375 -7.21875 L 6.953125 -7.21875 Z M 6.40625 -6.4375 C 6.4375 -6.40625 6.453125 -6.375 6.453125 -6.34375 L 6.40625 -6.328125 L 6.359375 -6.34375 L 6.328125 -6.34375 L 6.328125 -6.5 L 6.359375 -6.453125 Z M 7.625 -6.09375 L 7.59375 -6.078125 L 7.453125 -6.078125 C 7.453125 -6.128906 7.5 -6.179688 7.59375 -6.234375 L 7.671875 -6.140625 L 7.671875 -6.09375 Z M 7.296875 -5.734375 L 7.296875 -5.796875 L 7.5 -5.78125 L 7.5 -5.6875 Z M 8.53125 -5.3125 C 8.550781 -5.3125 8.5625 -5.296875 8.5625 -5.265625 C 8.5625 -5.171875 8.515625 -5.125 8.421875 -5.125 C 8.328125 -5.125 8.265625 -5.160156 8.234375 -5.234375 L 8.28125 -5.34375 L 8.484375 -5.34375 C 8.484375 -5.332031 8.492188 -5.328125 8.515625 -5.328125 Z M 7.515625 -5.21875 L 7.421875 -5.265625 L 7.5 -5.328125 L 7.59375 -5.3125 Z M 7.859375 -4.671875 C 7.859375 -4.640625 7.878906 -4.625 7.921875 -4.625 C 7.921875 -4.59375 7.914062 -4.578125 7.90625 -4.578125 L 7.90625 -4.53125 C 7.882812 -4.53125 7.875 -4.523438 7.875 -4.515625 L 7.71875 -4.515625 L 7.703125 -4.53125 L 7.671875 -4.53125 L 7.625 -4.5625 L 7.671875 -4.71875 L 7.765625 -4.71875 Z M 8.78125 -4.609375 L 8.84375 -4.578125 L 8.78125 -4.53125 L 8.734375 -4.515625 C 8.691406 -4.472656 8.65625 -4.453125 8.625 -4.453125 L 8.625 -4.53125 C 8.613281 -4.5625 8.617188 -4.59375 8.640625 -4.625 L 8.734375 -4.625 Z M 8.078125 -4.203125 C 8.023438 -4.203125 7.976562 -4.21875 7.9375 -4.25 C 7.894531 -4.28125 7.882812 -4.316406 7.90625 -4.359375 C 7.914062 -4.359375 7.9375 -4.359375 7.96875 -4.359375 C 8 -4.367188 8.046875 -4.375 8.109375 -4.375 L 8.15625 -4.40625 C 8.164062 -4.414062 8.191406 -4.421875 8.234375 -4.421875 L 8.265625 -4.3125 L 8.171875 -4.25 Z M 7.96875 -3.84375 C 8.09375 -3.71875 8.15625 -3.648438 8.15625 -3.640625 C 8.15625 -3.609375 8.144531 -3.582031 8.125 -3.5625 L 8.125 -3.515625 L 8.078125 -3.515625 L 8.03125 -3.5 L 7.96875 -3.5 C 7.925781 -3.5 7.890625 -3.515625 7.859375 -3.546875 L 7.796875 -3.546875 C 7.796875 -3.546875 7.765625 -3.546875 7.703125 -3.546875 C 7.648438 -3.554688 7.582031 -3.570312 7.5 -3.59375 C 7.46875 -3.625 7.453125 -3.644531 7.453125 -3.65625 L 7.421875 -3.6875 L 7.421875 -3.765625 L 7.5 -3.765625 C 7.570312 -3.765625 7.628906 -3.757812 7.671875 -3.75 C 7.703125 -3.726562 7.742188 -3.71875 7.796875 -3.71875 L 7.8125 -3.71875 C 7.84375 -3.71875 7.863281 -3.726562 7.875 -3.75 L 7.921875 -3.765625 C 7.921875 -3.785156 7.9375 -3.8125 7.96875 -3.84375 Z M 8.640625 -3.65625 L 8.640625 -3.609375 L 8.46875 -3.609375 C 8.507812 -3.660156 8.53125 -3.707031 8.53125 -3.75 L 8.6875 -3.75 Z M 8.40625 -3.453125 L 8.40625 -3.59375 L 8.515625 -3.59375 L 8.515625 -3.453125 Z M 7.90625 -3.34375 C 7.90625 -3.3125 7.867188 -3.273438 7.796875 -3.234375 L 7.625 -3.140625 L 7.546875 -3.140625 C 7.453125 -3.140625 7.390625 -3.15625 7.359375 -3.1875 L 7.359375 -3.234375 C 7.359375 -3.273438 7.40625 -3.316406 7.5 -3.359375 C 7.539062 -3.359375 7.570312 -3.367188 7.59375 -3.390625 C 7.664062 -3.429688 7.691406 -3.445312 7.671875 -3.4375 L 7.90625 -3.4375 Z M 8.5625 -3.1875 C 8.601562 -3.132812 8.625 -3.101562 8.625 -3.09375 C 8.625 -3.019531 8.585938 -2.984375 8.515625 -2.984375 L 8.421875 -2.90625 C 8.359375 -2.988281 8.328125 -3.050781 8.328125 -3.09375 C 8.328125 -3.1875 8.363281 -3.238281 8.4375 -3.25 Z M 7.921875 -3 C 7.847656 -2.988281 7.765625 -2.988281 7.671875 -3 L 7.671875 -3.09375 L 7.765625 -3.15625 L 7.90625 -3.15625 C 7.914062 -3.15625 7.921875 -3.132812 7.921875 -3.09375 Z M 3.3125 -2.984375 L 3.3125 -3.046875 L 3.453125 -3.046875 L 3.453125 -2.984375 Z M 7.453125 -2.6875 L 7.40625 -2.640625 L 7.359375 -2.640625 C 7.359375 -2.628906 7.34375 -2.625 7.3125 -2.625 L 7.3125 -2.703125 C 7.3125 -2.734375 7.328125 -2.765625 7.359375 -2.796875 C 7.378906 -2.796875 7.390625 -2.789062 7.390625 -2.78125 C 7.398438 -2.78125 7.40625 -2.78125 7.40625 -2.78125 L 7.421875 -2.734375 Z M 6.6875 -2.421875 C 6.71875 -2.398438 6.734375 -2.351562 6.734375 -2.28125 C 6.671875 -2.28125 6.609375 -2.296875 6.546875 -2.328125 C 6.554688 -2.328125 6.566406 -2.328125 6.578125 -2.328125 C 6.585938 -2.335938 6.59375 -2.34375 6.59375 -2.34375 C 6.59375 -2.363281 6.609375 -2.375 6.640625 -2.375 L 6.640625 -2.390625 C 6.640625 -2.410156 6.65625 -2.421875 6.6875 -2.421875 Z M 7.921875 -2.375 C 7.941406 -2.351562 7.953125 -2.328125 7.953125 -2.296875 C 7.898438 -2.296875 7.804688 -2.320312 7.671875 -2.375 L 7.921875 -2.421875 Z M 3.765625 -2.28125 L 3.6875 -2.328125 L 3.75 -2.390625 L 3.84375 -2.375 Z M 6.8125 -2.140625 C 6.875 -2.140625 6.914062 -2.132812 6.9375 -2.125 L 7.046875 -2.09375 C 7.046875 -2.019531 6.984375 -1.984375 6.859375 -1.984375 C 6.859375 -2.003906 6.832031 -2.015625 6.78125 -2.015625 Z M 6.359375 -1.984375 L 6.359375 -2.09375 L 6.453125 -2.09375 L 6.453125 -1.984375 Z M 4.3125 -1.578125 L 4.3125 -1.640625 L 4.46875 -1.640625 L 4.46875 -1.578125 Z M 6.78125 -1.515625 C 6.75 -1.523438 6.734375 -1.546875 6.734375 -1.578125 C 6.734375 -1.617188 6.75 -1.640625 6.78125 -1.640625 L 6.953125 -1.640625 Z M 6.78125 -1.515625 "/></g></g></g><g fill="#ffffff" fill-opacity="1"><g transform="translate(67.526534, 24.32794)"><g><path d="M 4.71875 -3.8125 C 4.300781 -3.8125 4.007812 -3.972656 3.84375 -4.296875 C 3.675781 -4.617188 3.59375 -5.066406 3.59375 -5.640625 C 3.59375 -5.847656 3.609375 -6.164062 3.640625 -6.59375 L 3.84375 -9.578125 L 4.265625 -15.015625 L 4.265625 -15.0625 C 4.265625 -15.175781 4.21875 -15.28125 4.125 -15.375 C 4.039062 -15.46875 3.9375 -15.515625 3.8125 -15.515625 L 1.03125 -15.515625 C 0.757812 -15.515625 0.613281 -15.378906 0.59375 -15.109375 L 0.015625 -9.734375 C -0.117188 -8.359375 -0.191406 -7.179688 -0.203125 -6.203125 L -0.203125 -5.484375 C -0.203125 -4.671875 -0.171875 -4.070312 -0.109375 -3.6875 C 0.0234375 -2.4375 0.421875 -1.507812 1.078125 -0.90625 C 1.710938 -0.300781 2.820312 0 4.40625 0 C 6.40625 0 7.929688 -0.59375 8.984375 -1.78125 C 9.648438 -2.550781 10.109375 -3.546875 10.359375 -4.765625 C 10.554688 -5.804688 10.65625 -6.921875 10.65625 -8.109375 L 10.65625 -9.59375 L 10.859375 -15.03125 C 10.859375 -15.15625 10.8125 -15.265625 10.71875 -15.359375 C 10.632812 -15.460938 10.53125 -15.515625 10.40625 -15.515625 L 7.625 -15.515625 C 7.34375 -15.515625 7.195312 -15.367188 7.1875 -15.078125 L 6.90625 -9.703125 L 6.90625 -9.6875 C 6.84375 -8.46875 6.789062 -7.550781 6.75 -6.9375 L 6.6875 -6.078125 C 6.6875 -6.015625 6.660156 -5.847656 6.609375 -5.578125 C 6.523438 -5.015625 6.347656 -4.578125 6.078125 -4.265625 C 5.816406 -3.960938 5.363281 -3.8125 4.71875 -3.8125 Z M 10.3125 -14.34375 C 10.269531 -14.113281 10.25 -13.945312 10.25 -13.84375 C 10.25 -13.84375 10.25 -13.835938 10.25 -13.828125 C 10.257812 -13.816406 10.265625 -13.8125 10.265625 -13.8125 C 10.265625 -13.800781 10.273438 -13.796875 10.296875 -13.796875 L 10.046875 -13.796875 L 10.03125 -14.0625 L 10.03125 -14.34375 C 10.03125 -14.476562 10.019531 -14.554688 10 -14.578125 L 10 -14.71875 C 10 -14.757812 10.015625 -14.828125 10.046875 -14.921875 C 10.078125 -15.015625 10.125 -15.0625 10.1875 -15.0625 C 10.300781 -15.0625 10.351562 -15.007812 10.34375 -14.90625 C 10.34375 -14.8125 10.34375 -14.757812 10.34375 -14.75 L 10.34375 -14.65625 Z M 0.671875 -12.125 C 0.671875 -12.164062 0.695312 -12.210938 0.75 -12.265625 L 0.796875 -12.390625 L 0.765625 -12.53125 L 0.75 -12.6875 L 0.703125 -12.796875 L 0.65625 -12.921875 L 0.703125 -13.078125 L 0.765625 -13.328125 C 0.765625 -13.335938 0.75 -13.359375 0.71875 -13.390625 L 0.703125 -13.453125 C 0.703125 -13.472656 0.71875 -13.5 0.75 -13.53125 L 0.765625 -13.8125 C 0.796875 -13.84375 0.8125 -13.867188 0.8125 -13.890625 C 0.820312 -13.898438 0.820312 -13.9375 0.8125 -14 C 0.875 -14.0625 0.90625 -14.113281 0.90625 -14.15625 L 0.90625 -14.3125 C 0.882812 -14.375 0.863281 -14.421875 0.84375 -14.453125 C 0.820312 -14.492188 0.789062 -14.53125 0.75 -14.5625 C 0.820312 -14.5625 0.859375 -14.566406 0.859375 -14.578125 C 0.890625 -14.609375 0.921875 -14.625 0.953125 -14.625 L 1.0625 -14.625 L 0.921875 -11.765625 C 0.878906 -11.691406 0.828125 -11.640625 0.765625 -11.609375 L 0.765625 -11.5625 C 0.796875 -11.5625 0.8125 -11.550781 0.8125 -11.53125 C 0.84375 -11.53125 0.875 -11.546875 0.90625 -11.578125 C 0.90625 -11.492188 0.878906 -11.40625 0.828125 -11.3125 C 0.785156 -11.25 0.75 -11.21875 0.71875 -11.21875 C 0.71875 -11.25 0.703125 -11.265625 0.671875 -11.265625 L 0.65625 -11.3125 Z M 0.8125 -9.328125 C 0.707031 -9.335938 0.617188 -9.378906 0.546875 -9.453125 L 0.5625 -9.546875 L 0.65625 -9.578125 L 0.8125 -9.59375 Z M 7.953125 -9.4375 C 7.929688 -9.425781 7.914062 -9.410156 7.90625 -9.390625 C 7.90625 -9.378906 7.894531 -9.375 7.875 -9.375 C 7.875 -9.375 7.867188 -9.367188 7.859375 -9.359375 C 7.859375 -9.347656 7.859375 -9.34375 7.859375 -9.34375 C 7.828125 -9.34375 7.8125 -9.359375 7.8125 -9.390625 L 7.8125 -9.453125 Z M 0.765625 -8.640625 C 0.765625 -8.503906 0.710938 -8.4375 0.609375 -8.4375 C 0.566406 -8.4375 0.53125 -8.460938 0.5 -8.515625 C 0.507812 -8.578125 0.597656 -8.644531 0.765625 -8.71875 Z M 8.515625 -7.21875 C 8.523438 -7.175781 8.515625 -7.148438 8.484375 -7.140625 L 8.3125 -7.140625 L 8.359375 -7.21875 Z M 8.03125 -6.5 C 8.019531 -6.488281 8 -6.484375 7.96875 -6.484375 C 7.96875 -6.515625 7.945312 -6.535156 7.90625 -6.546875 C 7.9375 -6.546875 7.953125 -6.550781 7.953125 -6.5625 L 8 -6.5625 C 8.039062 -6.5625 8.066406 -6.554688 8.078125 -6.546875 Z M 7.609375 -4.8125 L 7.671875 -4.859375 L 7.671875 -4.8125 L 7.609375 -4.765625 Z M 7.921875 -4.578125 L 8 -4.578125 L 7.96875 -4.5 L 7.90625 -4.5 Z M 6.484375 -3.859375 C 6.492188 -3.816406 6.492188 -3.785156 6.484375 -3.765625 L 6.28125 -3.765625 L 6.328125 -3.859375 Z M 5.109375 -3.5625 C 5.054688 -3.476562 5.019531 -3.425781 5 -3.40625 C 4.976562 -3.394531 4.929688 -3.390625 4.859375 -3.390625 L 4.734375 -3.390625 C 4.648438 -3.390625 4.59375 -3.429688 4.5625 -3.515625 C 4.5625 -3.535156 4.582031 -3.566406 4.625 -3.609375 C 4.726562 -3.609375 4.8125 -3.601562 4.875 -3.59375 C 4.9375 -3.59375 4.984375 -3.59375 5.015625 -3.59375 Z M 5.6875 -3.515625 L 5.71875 -3.59375 L 5.78125 -3.5625 L 5.734375 -3.5 Z M 5.671875 -2.78125 L 5.6875 -3.1875 L 5.75 -3.1875 L 5.6875 -2.78125 Z M 4.15625 -2.953125 C 4.15625 -2.972656 4.1875 -3.015625 4.25 -3.078125 C 4.25 -3.078125 4.269531 -3.0625 4.3125 -3.03125 C 4.351562 -3 4.390625 -2.953125 4.421875 -2.890625 L 4.171875 -2.875 Z M 4.15625 -2.953125 "/></g></g></g><g fill="#ffffff" fill-opacity="1"><g transform="translate(79.30895, 24.32794)"><g><path d="M 13.09375 -0.453125 C 13.09375 -0.328125 13.046875 -0.21875 12.953125 -0.125 C 12.867188 -0.0390625 12.765625 0 12.640625 0 L 9.375 -0.0625 C 9.25 -0.0625 9.132812 -0.109375 9.03125 -0.203125 C 8.9375 -0.304688 8.898438 -0.421875 8.921875 -0.546875 L 9.21875 -5.375 L 8.015625 -2.890625 C 7.847656 -2.546875 7.671875 -2.25 7.484375 -2 C 7.304688 -1.75 7.109375 -1.570312 6.890625 -1.46875 C 6.691406 -1.34375 6.457031 -1.28125 6.1875 -1.28125 C 5.894531 -1.28125 5.640625 -1.367188 5.421875 -1.546875 C 5.210938 -1.722656 5.0625 -1.972656 4.96875 -2.296875 L 4.109375 -4.921875 L 4.015625 -5.234375 L 3.953125 -2.984375 L 3.90625 -2.953125 L 3.90625 -2.84375 L 3.953125 -2.84375 L 3.890625 -0.515625 C 3.890625 -0.367188 3.820312 -0.242188 3.6875 -0.140625 C 3.65625 -0.148438 3.59375 -0.15625 3.5 -0.15625 L 2.890625 -0.15625 L 2.75 -0.1875 L 2.625 -0.21875 C 2.570312 -0.21875 2.519531 -0.203125 2.46875 -0.171875 C 2.414062 -0.148438 2.382812 -0.113281 2.375 -0.0625 L 3.4375 -0.0625 L 0.25 0 C 0.113281 0 0.00390625 -0.0390625 -0.078125 -0.125 C -0.171875 -0.21875 -0.21875 -0.332031 -0.21875 -0.46875 L 0.140625 -7.796875 L 0.359375 -12.328125 C 0.390625 -12.492188 0.390625 -12.613281 0.359375 -12.6875 L 0.46875 -15.015625 C 0.488281 -15.296875 0.640625 -15.445312 0.921875 -15.46875 L 2.703125 -15.53125 L 2.734375 -15.484375 C 2.742188 -15.472656 2.765625 -15.46875 2.796875 -15.46875 L 2.734375 -15.53125 L 2.84375 -15.53125 C 3.425781 -15.550781 3.910156 -15.394531 4.296875 -15.0625 C 4.171875 -15.039062 3.988281 -15.03125 3.75 -15.03125 C 3.550781 -15.03125 3.351562 -15.0625 3.15625 -15.125 C 3.113281 -15.125 2.84375 -15.160156 2.34375 -15.234375 C 2.257812 -15.128906 2.171875 -15.078125 2.078125 -15.078125 L 1.765625 -15.125 C 1.640625 -15.15625 1.546875 -15.171875 1.484375 -15.171875 C 1.367188 -15.171875 1.265625 -15.125 1.171875 -15.03125 C 1.078125 -15.082031 1.007812 -15.109375 0.96875 -15.109375 C 0.9375 -15.109375 0.910156 -15.097656 0.890625 -15.078125 C 0.867188 -15.066406 0.859375 -15.050781 0.859375 -15.03125 L 0.8125 -15.015625 C 0.8125 -15.015625 0.765625 -15.082031 0.671875 -15.21875 L 0.625 -14.90625 C 0.75 -14.914062 0.914062 -14.921875 1.125 -14.921875 C 1.363281 -14.921875 1.578125 -14.90625 1.765625 -14.875 L 1.984375 -14.859375 C 2.054688 -14.859375 2.226562 -14.875 2.5 -14.90625 L 2.59375 -14.953125 L 2.6875 -14.953125 L 2.84375 -14.96875 L 2.9375 -14.921875 C 3.414062 -14.878906 3.9375 -14.859375 4.5 -14.859375 C 4.65625 -14.660156 4.796875 -14.40625 4.921875 -14.09375 L 4.921875 -14.0625 L 6.546875 -8.421875 L 9.25 -14.859375 C 9.945312 -14.859375 10.738281 -14.878906 11.625 -14.921875 L 11.65625 -15.125 C 11.050781 -15.0625 10.359375 -15.03125 9.578125 -15.03125 L 9.328125 -15.03125 L 9.453125 -15.3125 L 9.484375 -15.390625 L 9.5 -15.375 L 9.578125 -15.328125 C 9.648438 -15.359375 9.6875 -15.394531 9.6875 -15.4375 L 9.703125 -15.484375 L 9.703125 -15.5625 C 9.765625 -15.59375 9.828125 -15.609375 9.890625 -15.609375 L 10.859375 -15.609375 C 11.503906 -15.609375 11.992188 -15.441406 12.328125 -15.109375 C 12.796875 -14.640625 13.03125 -14.054688 13.03125 -13.359375 Z M 3.453125 -15.359375 L 3.484375 -15.28125 L 3.609375 -15.28125 L 3.65625 -15.375 C 3.65625 -15.414062 3.625 -15.4375 3.5625 -15.4375 C 3.53125 -15.40625 3.503906 -15.390625 3.484375 -15.390625 Z M 11.53125 -15.21875 C 11.34375 -15.257812 11.191406 -15.304688 11.078125 -15.359375 L 10.921875 -15.390625 C 10.953125 -15.347656 10.960938 -15.320312 10.953125 -15.3125 Z M 10.203125 -15.234375 C 10.171875 -15.265625 10.140625 -15.28125 10.109375 -15.28125 C 10.066406 -15.28125 10.019531 -15.265625 9.96875 -15.234375 C 9.925781 -15.203125 9.898438 -15.175781 9.890625 -15.15625 C 9.921875 -15.125 9.941406 -15.109375 9.953125 -15.109375 C 9.953125 -15.109375 9.957031 -15.101562 9.96875 -15.09375 C 9.976562 -15.082031 9.984375 -15.078125 9.984375 -15.078125 L 10.203125 -15.15625 Z M 2.984375 -15.28125 C 2.992188 -15.269531 3 -15.269531 3 -15.28125 Z M 0.671875 -14.453125 L 0.625 -14.5 L 0.5625 -14.453125 Z M 0.625 -14.09375 L 0.625 -14.21875 L 0.546875 -14.09375 Z M 4.859375 -12.515625 C 4.859375 -12.515625 4.828125 -12.484375 4.765625 -12.421875 L 4.65625 -12.28125 L 4.828125 -12.28125 C 4.847656 -12.3125 4.859375 -12.347656 4.859375 -12.390625 Z M 4.25 -12.140625 L 4.40625 -12.140625 L 4.40625 -12.1875 L 4.25 -12.1875 Z M 11.265625 -12.03125 C 11.222656 -12.0625 11.203125 -12.085938 11.203125 -12.109375 L 11.046875 -12.109375 C 11.046875 -12.054688 11.066406 -12.007812 11.109375 -11.96875 L 11.203125 -11.96875 Z M 10.546875 -11.921875 C 10.546875 -11.816406 10.484375 -11.75 10.359375 -11.71875 C 10.390625 -11.6875 10.425781 -11.671875 10.46875 -11.671875 C 10.53125 -11.671875 10.609375 -11.691406 10.703125 -11.734375 L 10.703125 -11.875 Z M 4.609375 -11.25 L 4.453125 -11.328125 C 4.453125 -11.316406 4.441406 -11.3125 4.421875 -11.3125 L 4.421875 -11.296875 L 4.40625 -11.265625 L 4.5 -11.25 Z M 11.25 -10.90625 C 11.25 -10.96875 11.203125 -11.003906 11.109375 -11.015625 L 11.0625 -10.96875 C 11.050781 -10.9375 11.03125 -10.921875 11 -10.921875 C 11.007812 -10.878906 11.050781 -10.875 11.125 -10.90625 Z M 0.671875 -8.484375 L 0.609375 -8.5625 L 0.671875 -8.421875 Z M 10.5 -8.125 L 10.5 -8.109375 L 10.5625 -8.125 L 10.640625 -8.125 C 10.640625 -8.1875 10.597656 -8.21875 10.515625 -8.21875 L 10.453125 -8.171875 Z M 6.5 -7.953125 C 6.5 -7.890625 6.507812 -7.847656 6.53125 -7.828125 C 6.539062 -7.816406 6.546875 -7.796875 6.546875 -7.765625 L 6.734375 -7.765625 L 6.78125 -7.828125 C 6.78125 -7.828125 6.773438 -7.832031 6.765625 -7.84375 C 6.753906 -7.851562 6.75 -7.859375 6.75 -7.859375 L 6.734375 -7.875 L 6.6875 -7.953125 Z M 10.03125 -7.5 C 9.945312 -7.46875 9.90625 -7.429688 9.90625 -7.390625 C 9.90625 -7.359375 9.914062 -7.34375 9.9375 -7.34375 L 9.953125 -7.3125 C 9.953125 -7.332031 9.96875 -7.34375 10 -7.34375 L 10.03125 -7.34375 Z M 6.234375 -7.265625 L 6.25 -7.203125 L 6.296875 -7.1875 C 6.335938 -7.1875 6.359375 -7.222656 6.359375 -7.296875 L 6.140625 -7.3125 Z M 0.671875 -7.265625 L 0.609375 -7.265625 L 0.609375 -7 L 0.671875 -7 Z M 8.078125 -6.9375 L 8.078125 -6.953125 C 8.078125 -6.953125 8.082031 -6.957031 8.09375 -6.96875 C 8.101562 -6.976562 8.109375 -6.984375 8.109375 -6.984375 C 8.117188 -6.984375 8.125 -6.992188 8.125 -7.015625 C 8.125 -7.097656 8.066406 -7.140625 7.953125 -7.140625 C 7.890625 -7.140625 7.820312 -7.09375 7.75 -7 C 7.78125 -7 7.796875 -6.976562 7.796875 -6.9375 C 7.804688 -6.914062 7.859375 -6.90625 7.953125 -6.90625 Z M 6.84375 -6.65625 C 6.882812 -6.65625 6.914062 -6.664062 6.9375 -6.6875 L 6.984375 -6.6875 C 7.023438 -6.726562 7.015625 -6.785156 6.953125 -6.859375 L 6.6875 -6.796875 L 6.59375 -6.78125 L 6.65625 -6.734375 Z M 0.671875 -6.84375 L 0.609375 -6.84375 L 0.609375 -6.640625 L 0.671875 -6.640625 Z M 6.4375 -6.296875 L 6.546875 -6.296875 L 6.546875 -6.390625 L 6.4375 -6.390625 Z M 8.21875 -6.34375 L 8.015625 -6.34375 L 8.015625 -6.28125 L 8.21875 -6.28125 Z M 0.515625 -6.234375 C 0.484375 -6.210938 0.472656 -6.191406 0.484375 -6.171875 C 0.503906 -6.160156 0.539062 -6.148438 0.59375 -6.140625 L 0.59375 -6.296875 C 0.59375 -6.285156 0.566406 -6.265625 0.515625 -6.234375 Z M 0.59375 -6.09375 C 0.59375 -6.0625 0.550781 -6.03125 0.46875 -6 C 0.5 -5.945312 0.515625 -5.90625 0.515625 -5.875 C 0.515625 -5.78125 0.507812 -5.71875 0.5 -5.6875 L 0.5 -5.59375 C 0.5 -5.488281 0.535156 -5.414062 0.609375 -5.375 Z M 6.65625 -5.625 L 6.734375 -5.625 L 6.84375 -5.671875 L 6.78125 -5.734375 C 6.78125 -5.734375 6.765625 -5.75 6.734375 -5.78125 C 6.703125 -5.75 6.625 -5.734375 6.5 -5.734375 L 6.5625 -5.59375 Z M 7.515625 -5.515625 C 7.578125 -5.523438 7.609375 -5.550781 7.609375 -5.59375 C 7.609375 -5.613281 7.59375 -5.640625 7.5625 -5.671875 L 7.546875 -5.671875 L 7.515625 -5.6875 L 7.390625 -5.6875 C 7.304688 -5.644531 7.265625 -5.609375 7.265625 -5.578125 C 7.265625 -5.546875 7.28125 -5.515625 7.3125 -5.484375 C 7.34375 -5.453125 7.375 -5.4375 7.40625 -5.4375 Z M 7.109375 -4.984375 C 7.140625 -4.972656 7.175781 -4.96875 7.21875 -4.96875 C 7.269531 -4.976562 7.328125 -4.984375 7.390625 -4.984375 C 7.304688 -5.109375 7.226562 -5.171875 7.15625 -5.171875 C 7.144531 -5.171875 7.078125 -5.132812 6.953125 -5.0625 L 7.015625 -4.984375 Z M 7.953125 -4.9375 C 7.984375 -4.96875 8 -4.992188 8 -5.015625 C 8 -5.054688 7.953125 -5.109375 7.859375 -5.171875 C 7.796875 -5.128906 7.738281 -5.070312 7.6875 -5 C 7.632812 -4.9375 7.609375 -4.878906 7.609375 -4.828125 C 7.609375 -4.765625 7.613281 -4.726562 7.625 -4.71875 C 7.65625 -4.675781 7.710938 -4.65625 7.796875 -4.65625 C 7.847656 -4.65625 7.882812 -4.675781 7.90625 -4.71875 C 7.90625 -4.757812 7.910156 -4.796875 7.921875 -4.828125 C 7.921875 -4.859375 7.914062 -4.875 7.90625 -4.875 L 7.90625 -4.9375 Z M 0.46875 -2.234375 L 0.546875 -3.59375 L 0.671875 -5.109375 L 0.46875 -5.140625 L 0.46875 -4.515625 C 0.46875 -4.410156 0.425781 -4.3125 0.34375 -4.21875 L 0.21875 -4.125 C 0.195312 -4.101562 0.1875 -4.113281 0.1875 -4.15625 L 0.21875 -3.234375 L 0.296875 -2.640625 L 0.390625 -2.140625 C 0.410156 -1.929688 0.421875 -1.757812 0.421875 -1.625 C 0.421875 -1.445312 0.398438 -1.25 0.359375 -1.03125 C 0.328125 -0.945312 0.3125 -0.867188 0.3125 -0.796875 L 0.34375 -0.546875 C 0.351562 -0.492188 0.359375 -0.441406 0.359375 -0.390625 C 0.359375 -0.335938 0.367188 -0.289062 0.390625 -0.25 L 0.609375 -0.546875 Z M 6.9375 -4.71875 C 6.9375 -4.726562 6.914062 -4.742188 6.875 -4.765625 C 6.832031 -4.796875 6.800781 -4.8125 6.78125 -4.8125 L 6.78125 -4.71875 L 6.796875 -4.703125 C 6.835938 -4.703125 6.867188 -4.707031 6.890625 -4.71875 Z M 6.546875 -4.375 C 6.554688 -4.375 6.566406 -4.378906 6.578125 -4.390625 C 6.597656 -4.410156 6.601562 -4.421875 6.59375 -4.421875 C 6.5625 -4.421875 6.546875 -4.414062 6.546875 -4.40625 Z M 10.71875 -3.4375 L 10.65625 -3.484375 C 10.625 -3.503906 10.59375 -3.515625 10.5625 -3.515625 C 10.5 -3.515625 10.457031 -3.476562 10.4375 -3.40625 C 10.4375 -3.40625 10.445312 -3.390625 10.46875 -3.359375 C 10.5 -3.328125 10.539062 -3.3125 10.59375 -3.3125 C 10.601562 -3.3125 10.625 -3.328125 10.65625 -3.359375 Z M 12.109375 -2.9375 C 12.109375 -2.976562 12.09375 -3 12.0625 -3 C 12.03125 -3 11.988281 -2.976562 11.9375 -2.9375 Z M 6.796875 -2.671875 C 6.671875 -2.671875 6.566406 -2.695312 6.484375 -2.75 C 6.421875 -2.78125 6.378906 -2.796875 6.359375 -2.796875 C 6.335938 -2.796875 6.3125 -2.785156 6.28125 -2.765625 C 6.257812 -2.742188 6.25 -2.722656 6.25 -2.703125 C 6.382812 -2.648438 6.46875 -2.613281 6.5 -2.59375 L 6.609375 -2.53125 C 6.640625 -2.5 6.679688 -2.484375 6.734375 -2.484375 L 6.796875 -2.53125 Z M 7.34375 -2.46875 L 7.265625 -2.546875 C 7.265625 -2.546875 7.238281 -2.578125 7.1875 -2.640625 C 7.132812 -2.628906 7.109375 -2.59375 7.109375 -2.53125 C 7.140625 -2.5 7.171875 -2.472656 7.203125 -2.453125 C 7.242188 -2.441406 7.273438 -2.429688 7.296875 -2.421875 Z M 3.484375 -2.4375 C 3.484375 -2.363281 3.539062 -2.328125 3.65625 -2.328125 C 3.71875 -2.328125 3.75 -2.363281 3.75 -2.4375 C 3.75 -2.5 3.710938 -2.53125 3.640625 -2.53125 C 3.535156 -2.53125 3.484375 -2.5 3.484375 -2.4375 Z M 2.734375 -2.265625 L 2.703125 -2.28125 L 2.59375 -2.28125 C 2.59375 -2.28125 2.585938 -2.273438 2.578125 -2.265625 L 2.578125 -2.21875 C 2.578125 -2.164062 2.609375 -2.140625 2.671875 -2.140625 C 2.710938 -2.171875 2.734375 -2.195312 2.734375 -2.21875 Z M 6.734375 -1.9375 C 6.679688 -1.9375 6.65625 -1.914062 6.65625 -1.875 L 6.734375 -1.84375 Z M 6.734375 -1.640625 L 6.6875 -1.640625 L 6.6875 -1.5625 L 6.734375 -1.53125 Z M 2.328125 -1.53125 C 2.328125 -1.59375 2.304688 -1.625 2.265625 -1.625 C 2.234375 -1.625 2.195312 -1.613281 2.15625 -1.59375 C 2.113281 -1.582031 2.085938 -1.570312 2.078125 -1.5625 C 2.140625 -1.5 2.210938 -1.46875 2.296875 -1.46875 C 2.296875 -1.476562 2.304688 -1.484375 2.328125 -1.484375 Z M 3.703125 -0.8125 L 3.703125 -0.90625 L 3.8125 -1 L 3.6875 -1.03125 C 3.601562 -1.03125 3.5625 -1.019531 3.5625 -1 L 3.5625 -0.953125 C 3.625 -0.890625 3.648438 -0.835938 3.640625 -0.796875 C 3.617188 -0.742188 3.660156 -0.71875 3.765625 -0.71875 L 3.8125 -0.71875 L 3.8125 -0.75 C 3.800781 -0.757812 3.78125 -0.765625 3.75 -0.765625 Z M 3.703125 -0.8125 "/></g></g></g><g fill="#ffffff" fill-opacity="1"><g transform="translate(93.483985, 24.32794)"><g><path d="M 13.09375 -0.453125 C 13.09375 -0.328125 13.046875 -0.21875 12.953125 -0.125 C 12.867188 -0.0390625 12.765625 0 12.640625 0 L 9.375 -0.0625 C 9.25 -0.0625 9.132812 -0.109375 9.03125 -0.203125 C 8.9375 -0.304688 8.898438 -0.421875 8.921875 -0.546875 L 9.21875 -5.375 L 8.015625 -2.890625 C 7.847656 -2.546875 7.671875 -2.25 7.484375 -2 C 7.304688 -1.75 7.109375 -1.570312 6.890625 -1.46875 C 6.691406 -1.34375 6.457031 -1.28125 6.1875 -1.28125 C 5.894531 -1.28125 5.640625 -1.367188 5.421875 -1.546875 C 5.210938 -1.722656 5.0625 -1.972656 4.96875 -2.296875 L 4.109375 -4.921875 L 4.015625 -5.234375 L 3.953125 -2.984375 L 3.90625 -2.953125 L 3.90625 -2.84375 L 3.953125 -2.84375 L 3.890625 -0.515625 C 3.890625 -0.367188 3.820312 -0.242188 3.6875 -0.140625 C 3.65625 -0.148438 3.59375 -0.15625 3.5 -0.15625 L 2.890625 -0.15625 L 2.75 -0.1875 L 2.625 -0.21875 C 2.570312 -0.21875 2.519531 -0.203125 2.46875 -0.171875 C 2.414062 -0.148438 2.382812 -0.113281 2.375 -0.0625 L 3.4375 -0.0625 L 0.25 0 C 0.113281 0 0.00390625 -0.0390625 -0.078125 -0.125 C -0.171875 -0.21875 -0.21875 -0.332031 -0.21875 -0.46875 L 0.140625 -7.796875 L 0.359375 -12.328125 C 0.390625 -12.492188 0.390625 -12.613281 0.359375 -12.6875 L 0.46875 -15.015625 C 0.488281 -15.296875 0.640625 -15.445312 0.921875 -15.46875 L 2.703125 -15.53125 L 2.734375 -15.484375 C 2.742188 -15.472656 2.765625 -15.46875 2.796875 -15.46875 L 2.734375 -15.53125 L 2.84375 -15.53125 C 3.425781 -15.550781 3.910156 -15.394531 4.296875 -15.0625 C 4.171875 -15.039062 3.988281 -15.03125 3.75 -15.03125 C 3.550781 -15.03125 3.351562 -15.0625 3.15625 -15.125 C 3.113281 -15.125 2.84375 -15.160156 2.34375 -15.234375 C 2.257812 -15.128906 2.171875 -15.078125 2.078125 -15.078125 L 1.765625 -15.125 C 1.640625 -15.15625 1.546875 -15.171875 1.484375 -15.171875 C 1.367188 -15.171875 1.265625 -15.125 1.171875 -15.03125 C 1.078125 -15.082031 1.007812 -15.109375 0.96875 -15.109375 C 0.9375 -15.109375 0.910156 -15.097656 0.890625 -15.078125 C 0.867188 -15.066406 0.859375 -15.050781 0.859375 -15.03125 L 0.8125 -15.015625 C 0.8125 -15.015625 0.765625 -15.082031 0.671875 -15.21875 L 0.625 -14.90625 C 0.75 -14.914062 0.914062 -14.921875 1.125 -14.921875 C 1.363281 -14.921875 1.578125 -14.90625 1.765625 -14.875 L 1.984375 -14.859375 C 2.054688 -14.859375 2.226562 -14.875 2.5 -14.90625 L 2.59375 -14.953125 L 2.6875 -14.953125 L 2.84375 -14.96875 L 2.9375 -14.921875 C 3.414062 -14.878906 3.9375 -14.859375 4.5 -14.859375 C 4.65625 -14.660156 4.796875 -14.40625 4.921875 -14.09375 L 4.921875 -14.0625 L 6.546875 -8.421875 L 9.25 -14.859375 C 9.945312 -14.859375 10.738281 -14.878906 11.625 -14.921875 L 11.65625 -15.125 C 11.050781 -15.0625 10.359375 -15.03125 9.578125 -15.03125 L 9.328125 -15.03125 L 9.453125 -15.3125 L 9.484375 -15.390625 L 9.5 -15.375 L 9.578125 -15.328125 C 9.648438 -15.359375 9.6875 -15.394531 9.6875 -15.4375 L 9.703125 -15.484375 L 9.703125 -15.5625 C 9.765625 -15.59375 9.828125 -15.609375 9.890625 -15.609375 L 10.859375 -15.609375 C 11.503906 -15.609375 11.992188 -15.441406 12.328125 -15.109375 C 12.796875 -14.640625 13.03125 -14.054688 13.03125 -13.359375 Z M 3.453125 -15.359375 L 3.484375 -15.28125 L 3.609375 -15.28125 L 3.65625 -15.375 C 3.65625 -15.414062 3.625 -15.4375 3.5625 -15.4375 C 3.53125 -15.40625 3.503906 -15.390625 3.484375 -15.390625 Z M 11.53125 -15.21875 C 11.34375 -15.257812 11.191406 -15.304688 11.078125 -15.359375 L 10.921875 -15.390625 C 10.953125 -15.347656 10.960938 -15.320312 10.953125 -15.3125 Z M 10.203125 -15.234375 C 10.171875 -15.265625 10.140625 -15.28125 10.109375 -15.28125 C 10.066406 -15.28125 10.019531 -15.265625 9.96875 -15.234375 C 9.925781 -15.203125 9.898438 -15.175781 9.890625 -15.15625 C 9.921875 -15.125 9.941406 -15.109375 9.953125 -15.109375 C 9.953125 -15.109375 9.957031 -15.101562 9.96875 -15.09375 C 9.976562 -15.082031 9.984375 -15.078125 9.984375 -15.078125 L 10.203125 -15.15625 Z M 2.984375 -15.28125 C 2.992188 -15.269531 3 -15.269531 3 -15.28125 Z M 0.671875 -14.453125 L 0.625 -14.5 L 0.5625 -14.453125 Z M 0.625 -14.09375 L 0.625 -14.21875 L 0.546875 -14.09375 Z M 4.859375 -12.515625 C 4.859375 -12.515625 4.828125 -12.484375 4.765625 -12.421875 L 4.65625 -12.28125 L 4.828125 -12.28125 C 4.847656 -12.3125 4.859375 -12.347656 4.859375 -12.390625 Z M 4.25 -12.140625 L 4.40625 -12.140625 L 4.40625 -12.1875 L 4.25 -12.1875 Z M 11.265625 -12.03125 C 11.222656 -12.0625 11.203125 -12.085938 11.203125 -12.109375 L 11.046875 -12.109375 C 11.046875 -12.054688 11.066406 -12.007812 11.109375 -11.96875 L 11.203125 -11.96875 Z M 10.546875 -11.921875 C 10.546875 -11.816406 10.484375 -11.75 10.359375 -11.71875 C 10.390625 -11.6875 10.425781 -11.671875 10.46875 -11.671875 C 10.53125 -11.671875 10.609375 -11.691406 10.703125 -11.734375 L 10.703125 -11.875 Z M 4.609375 -11.25 L 4.453125 -11.328125 C 4.453125 -11.316406 4.441406 -11.3125 4.421875 -11.3125 L 4.421875 -11.296875 L 4.40625 -11.265625 L 4.5 -11.25 Z M 11.25 -10.90625 C 11.25 -10.96875 11.203125 -11.003906 11.109375 -11.015625 L 11.0625 -10.96875 C 11.050781 -10.9375 11.03125 -10.921875 11 -10.921875 C 11.007812 -10.878906 11.050781 -10.875 11.125 -10.90625 Z M 0.671875 -8.484375 L 0.609375 -8.5625 L 0.671875 -8.421875 Z M 10.5 -8.125 L 10.5 -8.109375 L 10.5625 -8.125 L 10.640625 -8.125 C 10.640625 -8.1875 10.597656 -8.21875 10.515625 -8.21875 L 10.453125 -8.171875 Z M 6.5 -7.953125 C 6.5 -7.890625 6.507812 -7.847656 6.53125 -7.828125 C 6.539062 -7.816406 6.546875 -7.796875 6.546875 -7.765625 L 6.734375 -7.765625 L 6.78125 -7.828125 C 6.78125 -7.828125 6.773438 -7.832031 6.765625 -7.84375 C 6.753906 -7.851562 6.75 -7.859375 6.75 -7.859375 L 6.734375 -7.875 L 6.6875 -7.953125 Z M 10.03125 -7.5 C 9.945312 -7.46875 9.90625 -7.429688 9.90625 -7.390625 C 9.90625 -7.359375 9.914062 -7.34375 9.9375 -7.34375 L 9.953125 -7.3125 C 9.953125 -7.332031 9.96875 -7.34375 10 -7.34375 L 10.03125 -7.34375 Z M 6.234375 -7.265625 L 6.25 -7.203125 L 6.296875 -7.1875 C 6.335938 -7.1875 6.359375 -7.222656 6.359375 -7.296875 L 6.140625 -7.3125 Z M 0.671875 -7.265625 L 0.609375 -7.265625 L 0.609375 -7 L 0.671875 -7 Z M 8.078125 -6.9375 L 8.078125 -6.953125 C 8.078125 -6.953125 8.082031 -6.957031 8.09375 -6.96875 C 8.101562 -6.976562 8.109375 -6.984375 8.109375 -6.984375 C 8.117188 -6.984375 8.125 -6.992188 8.125 -7.015625 C 8.125 -7.097656 8.066406 -7.140625 7.953125 -7.140625 C 7.890625 -7.140625 7.820312 -7.09375 7.75 -7 C 7.78125 -7 7.796875 -6.976562 7.796875 -6.9375 C 7.804688 -6.914062 7.859375 -6.90625 7.953125 -6.90625 Z M 6.84375 -6.65625 C 6.882812 -6.65625 6.914062 -6.664062 6.9375 -6.6875 L 6.984375 -6.6875 C 7.023438 -6.726562 7.015625 -6.785156 6.953125 -6.859375 L 6.6875 -6.796875 L 6.59375 -6.78125 L 6.65625 -6.734375 Z M 0.671875 -6.84375 L 0.609375 -6.84375 L 0.609375 -6.640625 L 0.671875 -6.640625 Z M 6.4375 -6.296875 L 6.546875 -6.296875 L 6.546875 -6.390625 L 6.4375 -6.390625 Z M 8.21875 -6.34375 L 8.015625 -6.34375 L 8.015625 -6.28125 L 8.21875 -6.28125 Z M 0.515625 -6.234375 C 0.484375 -6.210938 0.472656 -6.191406 0.484375 -6.171875 C 0.503906 -6.160156 0.539062 -6.148438 0.59375 -6.140625 L 0.59375 -6.296875 C 0.59375 -6.285156 0.566406 -6.265625 0.515625 -6.234375 Z M 0.59375 -6.09375 C 0.59375 -6.0625 0.550781 -6.03125 0.46875 -6 C 0.5 -5.945312 0.515625 -5.90625 0.515625 -5.875 C 0.515625 -5.78125 0.507812 -5.71875 0.5 -5.6875 L 0.5 -5.59375 C 0.5 -5.488281 0.535156 -5.414062 0.609375 -5.375 Z M 6.65625 -5.625 L 6.734375 -5.625 L 6.84375 -5.671875 L 6.78125 -5.734375 C 6.78125 -5.734375 6.765625 -5.75 6.734375 -5.78125 C 6.703125 -5.75 6.625 -5.734375 6.5 -5.734375 L 6.5625 -5.59375 Z M 7.515625 -5.515625 C 7.578125 -5.523438 7.609375 -5.550781 7.609375 -5.59375 C 7.609375 -5.613281 7.59375 -5.640625 7.5625 -5.671875 L 7.546875 -5.671875 L 7.515625 -5.6875 L 7.390625 -5.6875 C 7.304688 -5.644531 7.265625 -5.609375 7.265625 -5.578125 C 7.265625 -5.546875 7.28125 -5.515625 7.3125 -5.484375 C 7.34375 -5.453125 7.375 -5.4375 7.40625 -5.4375 Z M 7.109375 -4.984375 C 7.140625 -4.972656 7.175781 -4.96875 7.21875 -4.96875 C 7.269531 -4.976562 7.328125 -4.984375 7.390625 -4.984375 C 7.304688 -5.109375 7.226562 -5.171875 7.15625 -5.171875 C 7.144531 -5.171875 7.078125 -5.132812 6.953125 -5.0625 L 7.015625 -4.984375 Z M 7.953125 -4.9375 C 7.984375 -4.96875 8 -4.992188 8 -5.015625 C 8 -5.054688 7.953125 -5.109375 7.859375 -5.171875 C 7.796875 -5.128906 7.738281 -5.070312 7.6875 -5 C 7.632812 -4.9375 7.609375 -4.878906 7.609375 -4.828125 C 7.609375 -4.765625 7.613281 -4.726562 7.625 -4.71875 C 7.65625 -4.675781 7.710938 -4.65625 7.796875 -4.65625 C 7.847656 -4.65625 7.882812 -4.675781 7.90625 -4.71875 C 7.90625 -4.757812 7.910156 -4.796875 7.921875 -4.828125 C 7.921875 -4.859375 7.914062 -4.875 7.90625 -4.875 L 7.90625 -4.9375 Z M 0.46875 -2.234375 L 0.546875 -3.59375 L 0.671875 -5.109375 L 0.46875 -5.140625 L 0.46875 -4.515625 C 0.46875 -4.410156 0.425781 -4.3125 0.34375 -4.21875 L 0.21875 -4.125 C 0.195312 -4.101562 0.1875 -4.113281 0.1875 -4.15625 L 0.21875 -3.234375 L 0.296875 -2.640625 L 0.390625 -2.140625 C 0.410156 -1.929688 0.421875 -1.757812 0.421875 -1.625 C 0.421875 -1.445312 0.398438 -1.25 0.359375 -1.03125 C 0.328125 -0.945312 0.3125 -0.867188 0.3125 -0.796875 L 0.34375 -0.546875 C 0.351562 -0.492188 0.359375 -0.441406 0.359375 -0.390625 C 0.359375 -0.335938 0.367188 -0.289062 0.390625 -0.25 L 0.609375 -0.546875 Z M 6.9375 -4.71875 C 6.9375 -4.726562 6.914062 -4.742188 6.875 -4.765625 C 6.832031 -4.796875 6.800781 -4.8125 6.78125 -4.8125 L 6.78125 -4.71875 L 6.796875 -4.703125 C 6.835938 -4.703125 6.867188 -4.707031 6.890625 -4.71875 Z M 6.546875 -4.375 C 6.554688 -4.375 6.566406 -4.378906 6.578125 -4.390625 C 6.597656 -4.410156 6.601562 -4.421875 6.59375 -4.421875 C 6.5625 -4.421875 6.546875 -4.414062 6.546875 -4.40625 Z M 10.71875 -3.4375 L 10.65625 -3.484375 C 10.625 -3.503906 10.59375 -3.515625 10.5625 -3.515625 C 10.5 -3.515625 10.457031 -3.476562 10.4375 -3.40625 C 10.4375 -3.40625 10.445312 -3.390625 10.46875 -3.359375 C 10.5 -3.328125 10.539062 -3.3125 10.59375 -3.3125 C 10.601562 -3.3125 10.625 -3.328125 10.65625 -3.359375 Z M 12.109375 -2.9375 C 12.109375 -2.976562 12.09375 -3 12.0625 -3 C 12.03125 -3 11.988281 -2.976562 11.9375 -2.9375 Z M 6.796875 -2.671875 C 6.671875 -2.671875 6.566406 -2.695312 6.484375 -2.75 C 6.421875 -2.78125 6.378906 -2.796875 6.359375 -2.796875 C 6.335938 -2.796875 6.3125 -2.785156 6.28125 -2.765625 C 6.257812 -2.742188 6.25 -2.722656 6.25 -2.703125 C 6.382812 -2.648438 6.46875 -2.613281 6.5 -2.59375 L 6.609375 -2.53125 C 6.640625 -2.5 6.679688 -2.484375 6.734375 -2.484375 L 6.796875 -2.53125 Z M 7.34375 -2.46875 L 7.265625 -2.546875 C 7.265625 -2.546875 7.238281 -2.578125 7.1875 -2.640625 C 7.132812 -2.628906 7.109375 -2.59375 7.109375 -2.53125 C 7.140625 -2.5 7.171875 -2.472656 7.203125 -2.453125 C 7.242188 -2.441406 7.273438 -2.429688 7.296875 -2.421875 Z M 3.484375 -2.4375 C 3.484375 -2.363281 3.539062 -2.328125 3.65625 -2.328125 C 3.71875 -2.328125 3.75 -2.363281 3.75 -2.4375 C 3.75 -2.5 3.710938 -2.53125 3.640625 -2.53125 C 3.535156 -2.53125 3.484375 -2.5 3.484375 -2.4375 Z M 2.734375 -2.265625 L 2.703125 -2.28125 L 2.59375 -2.28125 C 2.59375 -2.28125 2.585938 -2.273438 2.578125 -2.265625 L 2.578125 -2.21875 C 2.578125 -2.164062 2.609375 -2.140625 2.671875 -2.140625 C 2.710938 -2.171875 2.734375 -2.195312 2.734375 -2.21875 Z M 6.734375 -1.9375 C 6.679688 -1.9375 6.65625 -1.914062 6.65625 -1.875 L 6.734375 -1.84375 Z M 6.734375 -1.640625 L 6.6875 -1.640625 L 6.6875 -1.5625 L 6.734375 -1.53125 Z M 2.328125 -1.53125 C 2.328125 -1.59375 2.304688 -1.625 2.265625 -1.625 C 2.234375 -1.625 2.195312 -1.613281 2.15625 -1.59375 C 2.113281 -1.582031 2.085938 -1.570312 2.078125 -1.5625 C 2.140625 -1.5 2.210938 -1.46875 2.296875 -1.46875 C 2.296875 -1.476562 2.304688 -1.484375 2.328125 -1.484375 Z M 3.703125 -0.8125 L 3.703125 -0.90625 L 3.8125 -1 L 3.6875 -1.03125 C 3.601562 -1.03125 3.5625 -1.019531 3.5625 -1 L 3.5625 -0.953125 C 3.625 -0.890625 3.648438 -0.835938 3.640625 -0.796875 C 3.617188 -0.742188 3.660156 -0.71875 3.765625 -0.71875 L 3.8125 -0.71875 L 3.8125 -0.75 C 3.800781 -0.757812 3.78125 -0.765625 3.75 -0.765625 Z M 3.703125 -0.8125 "/></g></g></g><g fill="#ffffff" fill-opacity="1"><g transform="translate(107.65902, 24.32794)"><g><path d="M 4.0625 -15.828125 C 4.195312 -15.828125 4.304688 -15.773438 4.390625 -15.671875 C 4.472656 -15.578125 4.515625 -15.460938 4.515625 -15.328125 C 4.285156 -12.660156 4.117188 -10.1875 4.015625 -7.90625 C 3.984375 -6.757812 3.96875 -5.914062 3.96875 -5.375 L 3.90625 -5.375 C 3.832031 -5.375 3.78125 -5.363281 3.75 -5.34375 L 3.71875 -5.1875 L 3.765625 -5.1875 C 3.722656 -5.113281 3.640625 -5.054688 3.515625 -5.015625 C 3.648438 -4.953125 3.800781 -4.921875 3.96875 -4.921875 L 3.96875 -4.265625 L 3.859375 -4.265625 L 3.765625 -4.21875 L 3.703125 -4.203125 C 3.703125 -4.203125 3.6875 -4.1875 3.65625 -4.15625 L 3.65625 -4.0625 C 3.644531 -4.03125 3.640625 -3.992188 3.640625 -3.953125 C 3.640625 -3.859375 3.644531 -3.78125 3.65625 -3.71875 L 3.75 -3.796875 L 3.796875 -3.8125 L 3.90625 -3.890625 C 3.914062 -3.898438 3.921875 -3.9375 3.921875 -4 L 3.953125 -4.015625 L 3.96875 -4.015625 C 3.957031 -3.867188 3.953125 -3.546875 3.953125 -3.046875 C 3.921875 -3.078125 3.882812 -3.078125 3.84375 -3.046875 C 3.84375 -2.984375 3.847656 -2.953125 3.859375 -2.953125 L 3.890625 -2.9375 L 3.890625 -2.90625 L 3.921875 -2.90625 L 3.921875 -2.9375 L 3.953125 -2.9375 L 3.953125 -2.09375 C 3.953125 -2.15625 3.921875 -2.210938 3.859375 -2.265625 L 3.6875 -2.265625 C 3.6875 -2.210938 3.691406 -2.1875 3.703125 -2.1875 L 3.703125 -2.125 L 3.71875 -2.09375 L 3.71875 -2.078125 C 3.78125 -2.054688 3.859375 -2.0625 3.953125 -2.09375 L 3.953125 -0.515625 C 3.953125 -0.210938 3.800781 -0.0625 3.5 -0.0625 L 0.25 0 C 0.113281 0 0.00390625 -0.0390625 -0.078125 -0.125 C -0.171875 -0.21875 -0.21875 -0.332031 -0.21875 -0.46875 C -0.164062 -3.71875 -0.09375 -6.160156 0 -7.796875 C 0.09375 -9.742188 0.175781 -11.191406 0.25 -12.140625 C 0.257812 -12.128906 0.28125 -12.125 0.3125 -12.125 L 0.34375 -12.234375 C 0.320312 -12.253906 0.296875 -12.265625 0.265625 -12.265625 L 0.46875 -15.3125 C 0.488281 -15.59375 0.648438 -15.734375 0.953125 -15.734375 Z M 1.765625 -15.15625 C 1.796875 -15.195312 1.832031 -15.21875 1.875 -15.21875 C 1.988281 -15.21875 2.070312 -15.164062 2.125 -15.0625 C 2.164062 -14.957031 2.210938 -14.894531 2.265625 -14.875 C 2.285156 -14.90625 2.296875 -14.957031 2.296875 -15.03125 C 2.273438 -15.082031 2.304688 -15.125 2.390625 -15.15625 L 2.671875 -15.15625 C 2.671875 -15.207031 2.640625 -15.242188 2.578125 -15.265625 C 2.484375 -15.242188 2.429688 -15.242188 2.421875 -15.265625 C 2.398438 -15.273438 2.367188 -15.28125 2.328125 -15.28125 L 2.21875 -15.234375 C 2.164062 -15.191406 2.132812 -15.171875 2.125 -15.171875 C 2.070312 -15.171875 2.023438 -15.191406 1.984375 -15.234375 L 1.875 -15.28125 L 1.5625 -15.28125 C 1.570312 -15.238281 1.5625 -15.203125 1.53125 -15.171875 L 1.40625 -15.171875 C 1.351562 -15.242188 1.328125 -15.265625 1.328125 -15.234375 C 1.328125 -15.253906 1.3125 -15.25 1.28125 -15.21875 L 1.234375 -15.125 L 1.15625 -15.125 C 1.15625 -15.125 1.128906 -15.144531 1.078125 -15.1875 C 1.066406 -15.207031 1.046875 -15.238281 1.015625 -15.28125 C 0.953125 -15.28125 0.90625 -15.285156 0.875 -15.296875 C 0.84375 -15.304688 0.820312 -15.3125 0.8125 -15.3125 C 0.8125 -15.289062 0.796875 -15.265625 0.765625 -15.234375 C 0.734375 -15.222656 0.71875 -15.203125 0.71875 -15.171875 C 0.71875 -15.078125 0.734375 -15.015625 0.765625 -14.984375 C 0.804688 -14.941406 0.820312 -14.847656 0.8125 -14.703125 L 0.75 -14.5 L 0.671875 -14.265625 C 0.671875 -14.234375 0.6875 -14.203125 0.71875 -14.171875 C 0.75 -14.148438 0.765625 -14.125 0.765625 -14.09375 C 0.734375 -14.09375 0.71875 -14.082031 0.71875 -14.0625 C 0.675781 -14.019531 0.65625 -13.988281 0.65625 -13.96875 C 0.71875 -13.957031 0.734375 -13.90625 0.703125 -13.8125 C 0.648438 -13.769531 0.625 -13.726562 0.625 -13.6875 C 0.625 -13.53125 0.632812 -13.414062 0.65625 -13.34375 L 0.703125 -13.09375 C 0.703125 -13.0625 0.675781 -13.03125 0.625 -13 L 0.671875 -13 L 0.703125 -12.984375 C 0.785156 -13.023438 0.867188 -13.046875 0.953125 -13.046875 L 0.953125 -13.25 C 0.898438 -13.269531 0.859375 -13.304688 0.828125 -13.359375 C 0.804688 -13.410156 0.800781 -13.453125 0.8125 -13.484375 L 1.015625 -13.546875 L 1.171875 -13.609375 C 1.128906 -13.640625 1.109375 -13.664062 1.109375 -13.6875 C 1.109375 -13.757812 1.164062 -13.796875 1.28125 -13.796875 C 1.25 -13.828125 1.234375 -13.847656 1.234375 -13.859375 L 1.21875 -13.90625 C 1.3125 -14 1.359375 -14.046875 1.359375 -14.046875 C 1.359375 -14.078125 1.34375 -14.109375 1.3125 -14.140625 L 1.265625 -14.21875 C 1.328125 -14.28125 1.382812 -14.3125 1.4375 -14.3125 L 1.671875 -14.359375 C 1.515625 -14.359375 1.4375 -14.390625 1.4375 -14.453125 C 1.4375 -14.484375 1.46875 -14.515625 1.53125 -14.546875 C 1.59375 -14.585938 1.660156 -14.609375 1.734375 -14.609375 C 1.671875 -14.648438 1.65625 -14.703125 1.6875 -14.765625 C 1.675781 -14.765625 1.65625 -14.773438 1.625 -14.796875 C 1.59375 -14.816406 1.578125 -14.84375 1.578125 -14.875 C 1.578125 -14.925781 1.628906 -14.972656 1.734375 -15.015625 C 1.765625 -15.046875 1.765625 -15.066406 1.734375 -15.078125 C 1.734375 -15.109375 1.742188 -15.132812 1.765625 -15.15625 Z M 1.8125 -14.546875 C 1.8125 -14.523438 1.820312 -14.515625 1.84375 -14.515625 C 1.96875 -14.515625 2.046875 -14.53125 2.078125 -14.5625 L 2.09375 -14.609375 L 2.09375 -14.671875 C 2.09375 -14.722656 2.101562 -14.753906 2.125 -14.765625 C 2.0625 -14.765625 2.03125 -14.75 2.03125 -14.71875 C 2 -14.65625 1.984375 -14.617188 1.984375 -14.609375 C 1.941406 -14.546875 1.882812 -14.523438 1.8125 -14.546875 Z M 0.96875 -12.234375 C 0.90625 -12.304688 0.882812 -12.375 0.90625 -12.4375 C 0.90625 -12.507812 0.941406 -12.5625 1.015625 -12.59375 C 1.054688 -12.59375 1.109375 -12.625 1.171875 -12.6875 C 1.160156 -12.78125 1.101562 -12.828125 1 -12.828125 C 0.90625 -12.804688 0.8125 -12.804688 0.71875 -12.828125 C 0.71875 -12.773438 0.703125 -12.726562 0.671875 -12.6875 C 0.640625 -12.65625 0.617188 -12.632812 0.609375 -12.625 C 0.648438 -12.59375 0.675781 -12.5625 0.6875 -12.53125 C 0.707031 -12.5 0.703125 -12.460938 0.671875 -12.421875 L 0.65625 -12.28125 L 0.671875 -12.109375 C 0.640625 -12.046875 0.625 -12 0.625 -11.96875 C 0.582031 -11.925781 0.582031 -11.890625 0.625 -11.859375 C 0.625 -11.835938 0.628906 -11.820312 0.640625 -11.8125 C 0.648438 -11.8125 0.660156 -11.800781 0.671875 -11.78125 C 0.691406 -11.78125 0.71875 -11.765625 0.75 -11.734375 L 0.625 -10.203125 C 0.519531 -10.140625 0.484375 -10.109375 0.515625 -10.109375 C 0.546875 -10.109375 0.582031 -10.085938 0.625 -10.046875 C 0.613281 -10.003906 0.578125 -9.972656 0.515625 -9.953125 L 0.5 -9.75 C 0.582031 -9.707031 0.613281 -9.675781 0.59375 -9.65625 L 0.515625 -9.59375 L 0.625 -9.5 L 0.5625 -8.53125 C 0.5 -8.488281 0.46875 -8.445312 0.46875 -8.40625 C 0.46875 -8.375 0.5 -8.328125 0.5625 -8.265625 C 0.5625 -8.265625 0.566406 -8.257812 0.578125 -8.25 C 0.585938 -8.238281 0.59375 -8.234375 0.59375 -8.234375 C 0.59375 -8.210938 0.578125 -8.1875 0.546875 -8.15625 C 0.515625 -8.132812 0.484375 -8.117188 0.453125 -8.109375 C 0.460938 -8.054688 0.460938 -8.007812 0.453125 -7.96875 C 0.453125 -7.9375 0.429688 -7.914062 0.390625 -7.90625 C 0.472656 -7.84375 0.515625 -7.78125 0.515625 -7.71875 C 0.515625 -7.675781 0.503906 -7.632812 0.484375 -7.59375 C 0.472656 -7.5625 0.460938 -7.53125 0.453125 -7.5 C 0.410156 -7.375 0.363281 -7.3125 0.3125 -7.3125 C 0.414062 -7.25 0.46875 -7.207031 0.46875 -7.1875 C 0.46875 -7.1875 0.460938 -7.179688 0.453125 -7.171875 C 0.453125 -7.160156 0.453125 -7.15625 0.453125 -7.15625 L 0.453125 -7.1875 C 0.410156 -7.132812 0.375 -7.082031 0.34375 -7.03125 C 0.3125 -6.976562 0.296875 -6.9375 0.296875 -6.90625 C 0.296875 -6.875 0.300781 -6.851562 0.3125 -6.84375 C 0.34375 -6.820312 0.359375 -6.804688 0.359375 -6.796875 L 0.296875 -6.75 C 0.335938 -6.738281 0.359375 -6.691406 0.359375 -6.609375 L 0.359375 -6.4375 C 0.359375 -6.4375 0.351562 -6.421875 0.34375 -6.390625 C 0.34375 -6.367188 0.332031 -6.332031 0.3125 -6.28125 C 0.3125 -6.257812 0.304688 -6.238281 0.296875 -6.21875 C 0.296875 -6.207031 0.296875 -6.195312 0.296875 -6.1875 L 0.359375 -6.046875 C 0.390625 -6.015625 0.40625 -5.976562 0.40625 -5.9375 C 0.40625 -5.894531 0.390625 -5.859375 0.359375 -5.828125 C 0.316406 -5.765625 0.296875 -5.71875 0.296875 -5.6875 C 0.296875 -5.65625 0.300781 -5.640625 0.3125 -5.640625 L 0.3125 -5.59375 L 0.453125 -5.59375 C 0.421875 -5.59375 0.40625 -5.617188 0.40625 -5.671875 C 0.394531 -5.679688 0.390625 -5.703125 0.390625 -5.734375 C 0.460938 -5.773438 0.519531 -5.796875 0.5625 -5.796875 C 0.53125 -5.847656 0.5 -5.925781 0.46875 -6.03125 C 0.4375 -6.144531 0.421875 -6.25 0.421875 -6.34375 C 0.421875 -6.375 0.4375 -6.40625 0.46875 -6.4375 C 0.5 -6.46875 0.515625 -6.570312 0.515625 -6.75 L 0.5625 -6.9375 C 0.601562 -6.976562 0.601562 -7.003906 0.5625 -7.015625 C 0.550781 -7.035156 0.5625 -7.082031 0.59375 -7.15625 L 0.671875 -7.15625 C 0.628906 -7.351562 0.609375 -7.472656 0.609375 -7.515625 C 0.609375 -7.578125 0.625 -7.644531 0.65625 -7.71875 C 0.6875 -7.789062 0.71875 -7.851562 0.75 -7.90625 L 0.625 -7.90625 L 0.625 -7.875 L 0.515625 -7.875 C 0.515625 -7.894531 0.5 -7.90625 0.46875 -7.90625 L 0.65625 -8.078125 C 0.71875 -8.140625 0.75 -8.1875 0.75 -8.21875 L 0.703125 -8.421875 C 0.648438 -8.523438 0.648438 -8.625 0.703125 -8.71875 L 0.875 -8.71875 C 0.757812 -8.71875 0.703125 -8.753906 0.703125 -8.828125 C 0.703125 -8.867188 0.734375 -8.953125 0.796875 -9.078125 C 0.847656 -9.179688 0.875 -9.269531 0.875 -9.34375 L 0.859375 -9.578125 C 0.835938 -9.585938 0.828125 -9.613281 0.828125 -9.65625 C 0.804688 -9.71875 0.796875 -9.785156 0.796875 -9.859375 L 0.765625 -9.984375 C 0.765625 -10.015625 0.78125 -10.050781 0.8125 -10.09375 C 0.851562 -10.238281 0.867188 -10.304688 0.859375 -10.296875 C 0.859375 -10.328125 0.875 -10.398438 0.90625 -10.515625 L 0.921875 -10.609375 C 0.921875 -10.628906 0.90625 -10.679688 0.875 -10.765625 C 0.832031 -10.898438 0.832031 -10.984375 0.875 -11.015625 C 0.894531 -11.046875 0.925781 -11.078125 0.96875 -11.109375 C 0.988281 -11.171875 1 -11.273438 1 -11.421875 C 1 -11.578125 1.035156 -11.671875 1.109375 -11.703125 C 0.984375 -11.773438 0.96875 -11.84375 1.0625 -11.90625 L 1 -12.015625 C 1.019531 -12.054688 1.007812 -12.128906 0.96875 -12.234375 Z M 3.1875 -12.125 C 3.1875 -12.125 3.160156 -12.101562 3.109375 -12.0625 L 3.25 -12.0625 Z M 3.59375 -11.921875 L 3.75 -12.015625 L 3.609375 -12.0625 C 3.546875 -12 3.515625 -11.96875 3.515625 -11.96875 Z M 3.890625 -9.9375 C 3.867188 -9.9375 3.859375 -9.941406 3.859375 -9.953125 L 3.8125 -9.953125 L 3.765625 -9.9375 C 3.765625 -9.9375 3.757812 -9.929688 3.75 -9.921875 C 3.75 -9.910156 3.75 -9.90625 3.75 -9.90625 C 3.75 -9.90625 3.742188 -9.898438 3.734375 -9.890625 C 3.722656 -9.890625 3.710938 -9.890625 3.703125 -9.890625 L 3.796875 -9.859375 C 3.804688 -9.847656 3.820312 -9.84375 3.84375 -9.84375 C 3.875 -9.851562 3.890625 -9.867188 3.890625 -9.890625 Z M 3.5 -9.1875 C 3.4375 -9.25 3.363281 -9.28125 3.28125 -9.28125 C 3.28125 -9.21875 3.300781 -9.164062 3.34375 -9.125 Z M 3.296875 -8.53125 L 3.296875 -8.609375 L 3.203125 -8.609375 L 3.203125 -8.53125 Z M 2.640625 -8.40625 L 2.671875 -8.53125 C 2.578125 -8.53125 2.515625 -8.488281 2.484375 -8.40625 Z M 3.40625 -8.234375 L 3.34375 -8.3125 L 3.1875 -8.3125 L 3.15625 -8.21875 C 3.15625 -8.144531 3.207031 -8.109375 3.3125 -8.109375 L 3.34375 -8.125 C 3.351562 -8.144531 3.363281 -8.15625 3.375 -8.15625 C 3.382812 -8.164062 3.390625 -8.179688 3.390625 -8.203125 Z M 2.953125 -8.03125 L 3 -8.0625 L 3.03125 -8.078125 C 3.082031 -8.128906 3.109375 -8.171875 3.109375 -8.203125 C 3.128906 -8.242188 3.09375 -8.265625 3 -8.265625 L 2.984375 -8.21875 L 2.984375 -8.15625 Z M 2.75 -7.671875 L 2.671875 -7.71875 L 2.625 -7.546875 L 2.734375 -7.453125 L 2.84375 -7.515625 C 2.90625 -7.546875 2.9375 -7.570312 2.9375 -7.59375 C 2.9375 -7.601562 2.925781 -7.613281 2.90625 -7.625 C 2.882812 -7.644531 2.863281 -7.65625 2.84375 -7.65625 Z M 3.390625 -7.265625 L 3.390625 -7.34375 L 3.25 -7.34375 L 3.25 -7.265625 Z M 3.15625 -7.09375 C 3.144531 -7.09375 3.140625 -7.109375 3.140625 -7.140625 L 2.984375 -7.140625 L 2.984375 -7.015625 L 3.15625 -7.015625 Z M 3.40625 -6.546875 C 3.34375 -6.609375 3.285156 -6.640625 3.234375 -6.640625 C 3.171875 -6.617188 3.140625 -6.570312 3.140625 -6.5 L 3.234375 -6.5 C 3.242188 -6.488281 3.269531 -6.484375 3.3125 -6.484375 Z M 3.84375 -6.296875 C 3.8125 -6.390625 3.75 -6.421875 3.65625 -6.390625 C 3.613281 -6.347656 3.609375 -6.328125 3.640625 -6.328125 L 3.640625 -6.25 Z M 3.15625 -6.03125 C 3.125 -6.007812 3.078125 -5.992188 3.015625 -5.984375 C 2.960938 -5.984375 2.898438 -5.96875 2.828125 -5.9375 L 2.828125 -5.84375 C 2.828125 -5.84375 2.828125 -5.835938 2.828125 -5.828125 C 2.835938 -5.828125 2.84375 -5.828125 2.84375 -5.828125 L 2.890625 -5.828125 L 2.90625 -5.796875 L 3.109375 -5.796875 L 3.109375 -5.921875 C 3.203125 -5.921875 3.265625 -5.925781 3.296875 -5.9375 C 3.296875 -5.96875 3.289062 -5.988281 3.28125 -6 L 3.25 -6.046875 L 3.25 -6.078125 L 3.28125 -6.1875 L 2.984375 -6.203125 C 2.984375 -6.097656 2.988281 -6.039062 3 -6.03125 Z M 2.890625 -5.75 C 2.890625 -5.738281 2.859375 -5.734375 2.796875 -5.734375 L 2.828125 -5.75 C 2.796875 -5.78125 2.742188 -5.796875 2.671875 -5.796875 L 2.625 -5.6875 L 2.671875 -5.6875 C 2.671875 -5.6875 2.671875 -5.679688 2.671875 -5.671875 C 2.679688 -5.671875 2.6875 -5.671875 2.6875 -5.671875 C 2.695312 -5.671875 2.71875 -5.65625 2.75 -5.625 L 2.796875 -5.6875 L 2.84375 -5.671875 C 2.84375 -5.640625 2.859375 -5.625 2.890625 -5.625 L 3.046875 -5.640625 C 3.046875 -5.710938 2.992188 -5.75 2.890625 -5.75 Z M 2.796875 -5.46875 L 2.796875 -5.4375 L 2.828125 -5.421875 L 3 -5.421875 C 2.957031 -5.484375 2.875 -5.515625 2.75 -5.515625 C 2.78125 -5.492188 2.789062 -5.476562 2.78125 -5.46875 Z M 0.421875 -5.421875 C 0.347656 -5.316406 0.3125 -5.28125 0.3125 -5.3125 C 0.269531 -5.257812 0.25 -5.21875 0.25 -5.1875 L 0.21875 -4.421875 C 0.21875 -4.441406 0.234375 -4.507812 0.265625 -4.625 C 0.265625 -4.71875 0.269531 -4.78125 0.28125 -4.8125 C 0.289062 -4.84375 0.296875 -4.863281 0.296875 -4.875 C 0.296875 -4.894531 0.3125 -4.945312 0.34375 -5.03125 C 0.382812 -5.082031 0.40625 -5.117188 0.40625 -5.140625 Z M 3.203125 -5.3125 L 3.234375 -5.28125 L 3.25 -5.234375 L 3.296875 -5.21875 C 3.296875 -5.195312 3.300781 -5.1875 3.3125 -5.1875 C 3.332031 -5.1875 3.34375 -5.195312 3.34375 -5.21875 L 3.390625 -5.265625 C 3.390625 -5.296875 3.378906 -5.316406 3.359375 -5.328125 C 3.359375 -5.328125 3.347656 -5.328125 3.328125 -5.328125 C 3.316406 -5.335938 3.3125 -5.351562 3.3125 -5.375 L 3.28125 -5.375 L 3.25 -5.421875 L 3.09375 -5.421875 L 3 -5.34375 L 3.09375 -5.28125 L 3.140625 -5.28125 L 3.15625 -5.3125 Z M 2.75 -5.265625 L 2.75 -5.1875 L 2.890625 -5.234375 L 2.875 -5.328125 Z M 3.96875 -5.1875 L 3.96875 -4.921875 C 3.9375 -4.953125 3.921875 -4.96875 3.921875 -4.96875 L 3.890625 -4.984375 L 3.890625 -5.015625 C 3.910156 -5.015625 3.921875 -5.035156 3.921875 -5.078125 L 3.921875 -5.1875 Z M 2.9375 -5.03125 C 2.90625 -5.03125 2.859375 -5 2.796875 -4.9375 L 2.875 -4.875 C 2.925781 -4.875 2.976562 -4.894531 3.03125 -4.9375 C 3.039062 -5 3.007812 -5.03125 2.9375 -5.03125 Z M 2.421875 -4.671875 C 2.429688 -4.609375 2.46875 -4.578125 2.53125 -4.578125 C 2.5625 -4.578125 2.578125 -4.585938 2.578125 -4.609375 L 2.625 -4.609375 L 2.671875 -4.625 L 2.6875 -4.765625 L 2.625 -4.8125 C 2.59375 -4.8125 2.566406 -4.816406 2.546875 -4.828125 C 2.503906 -4.828125 2.484375 -4.851562 2.484375 -4.90625 L 2.34375 -4.90625 L 2.296875 -4.875 L 2.296875 -4.859375 L 2.265625 -4.828125 L 2.234375 -4.8125 C 2.273438 -4.757812 2.3125 -4.734375 2.34375 -4.734375 Z M 3.203125 -4.765625 L 2.796875 -4.8125 L 2.796875 -4.703125 Z M 2.21875 -4.3125 C 2.257812 -4.269531 2.316406 -4.25 2.390625 -4.25 L 2.46875 -4.40625 L 2.265625 -4.40625 Z M 3.15625 -4.203125 C 3.21875 -4.242188 3.25 -4.285156 3.25 -4.328125 C 3.21875 -4.359375 3.164062 -4.375 3.09375 -4.375 L 3.078125 -4.375 C 2.992188 -4.332031 2.953125 -4.296875 2.953125 -4.265625 C 2.953125 -4.222656 2.976562 -4.203125 3.03125 -4.203125 Z M 3.640625 -4.265625 C 3.617188 -4.285156 3.570312 -4.296875 3.5 -4.296875 C 3.425781 -4.210938 3.40625 -4.148438 3.4375 -4.109375 C 3.519531 -4.097656 3.585938 -4.113281 3.640625 -4.15625 Z M 0.15625 -4.015625 C 0.21875 -4.015625 0.25 -4.03125 0.25 -4.0625 C 0.25 -4.15625 0.238281 -4.203125 0.21875 -4.203125 C 0.175781 -4.148438 0.15625 -4.085938 0.15625 -4.015625 Z M 2.390625 -3.765625 C 2.421875 -3.765625 2.445312 -3.773438 2.46875 -3.796875 L 2.5 -3.8125 L 2.546875 -3.859375 L 2.328125 -3.90625 L 2.34375 -3.84375 C 2.34375 -3.789062 2.359375 -3.765625 2.390625 -3.765625 Z M 2.265625 -3.859375 L 1.984375 -3.8125 L 2.265625 -3.75 Z M 2.875 -3.703125 L 2.984375 -3.703125 L 3 -3.796875 L 2.890625 -3.796875 Z M 2.59375 -3.4375 C 2.59375 -3.4375 2.585938 -3.429688 2.578125 -3.421875 C 2.578125 -3.410156 2.578125 -3.40625 2.578125 -3.40625 C 2.609375 -3.363281 2.679688 -3.34375 2.796875 -3.34375 C 2.828125 -3.34375 2.863281 -3.375 2.90625 -3.4375 L 3.09375 -3.4375 L 3.109375 -3.453125 L 3.109375 -3.484375 L 3.140625 -3.515625 L 2.9375 -3.5625 C 2.914062 -3.550781 2.90625 -3.53125 2.90625 -3.5 L 2.890625 -3.5 L 2.875 -3.515625 L 2.78125 -3.515625 C 2.71875 -3.515625 2.679688 -3.503906 2.671875 -3.484375 C 2.648438 -3.484375 2.632812 -3.472656 2.625 -3.453125 C 2.625 -3.441406 2.625 -3.4375 2.625 -3.4375 Z M 3.640625 -3.40625 L 3.6875 -3.390625 L 3.6875 -3.359375 L 3.71875 -3.359375 L 3.765625 -3.34375 C 3.890625 -3.34375 3.953125 -3.390625 3.953125 -3.484375 L 3.796875 -3.5 Z M 2.125 -3.484375 L 2.03125 -3.40625 C 2.070312 -3.363281 2.125 -3.34375 2.1875 -3.34375 L 2.234375 -3.359375 L 2.28125 -3.390625 L 2.34375 -3.40625 Z M 3.203125 -3.40625 L 3.34375 -3.40625 L 3.34375 -3.484375 L 3.203125 -3.484375 Z M 2.546875 -3.296875 C 2.515625 -3.265625 2.5 -3.242188 2.5 -3.234375 L 2.75 -3.203125 L 2.75 -3.296875 L 2.578125 -3.34375 C 2.578125 -3.3125 2.566406 -3.296875 2.546875 -3.296875 Z M 3.546875 -3.3125 L 3.546875 -3.34375 L 3.390625 -3.34375 L 3.390625 -3.203125 L 3.5625 -3.234375 L 3.5625 -3.296875 Z M 3.15625 -3.03125 L 3.109375 -3.1875 C 2.992188 -3.132812 2.914062 -3.085938 2.875 -3.046875 C 2.882812 -3.035156 2.925781 -3.03125 3 -3.03125 Z M 1.984375 -3.03125 L 2.1875 -3.03125 L 2.1875 -3.09375 L 1.984375 -3.09375 Z M 3.03125 -2.890625 L 3.03125 -2.828125 L 3.15625 -2.828125 L 3.15625 -2.890625 Z M 3.546875 -2.6875 C 3.640625 -2.726562 3.640625 -2.773438 3.546875 -2.828125 L 3.515625 -2.796875 L 3.453125 -2.796875 C 3.453125 -2.753906 3.46875 -2.734375 3.5 -2.734375 Z M 2.125 -2.625 C 2.164062 -2.59375 2.179688 -2.566406 2.171875 -2.546875 L 2.296875 -2.546875 C 2.347656 -2.578125 2.375 -2.601562 2.375 -2.625 L 2.390625 -2.625 C 2.390625 -2.632812 2.394531 -2.644531 2.40625 -2.65625 C 2.425781 -2.664062 2.4375 -2.671875 2.4375 -2.671875 C 2.40625 -2.671875 2.390625 -2.675781 2.390625 -2.6875 L 2.28125 -2.6875 C 2.175781 -2.71875 2.113281 -2.738281 2.09375 -2.75 C 2.09375 -2.71875 2.085938 -2.695312 2.078125 -2.6875 C 2.078125 -2.6875 2.078125 -2.675781 2.078125 -2.65625 C 2.078125 -2.644531 2.078125 -2.640625 2.078125 -2.640625 L 2.09375 -2.625 Z M 3.34375 -2.46875 C 3.40625 -2.4375 3.460938 -2.421875 3.515625 -2.421875 C 3.578125 -2.421875 3.617188 -2.425781 3.640625 -2.4375 L 3.65625 -2.4375 L 3.65625 -2.625 C 3.613281 -2.625 3.578125 -2.640625 3.546875 -2.671875 C 3.523438 -2.648438 3.503906 -2.640625 3.484375 -2.640625 C 3.460938 -2.640625 3.445312 -2.632812 3.4375 -2.625 L 3.40625 -2.671875 L 3.34375 -2.640625 C 3.3125 -2.609375 3.3125 -2.550781 3.34375 -2.46875 Z M 0.140625 -2.46875 L 0.046875 -2.390625 L 0.109375 -2.328125 Z M 3.234375 -2.34375 L 3.296875 -2.296875 L 3.390625 -2.421875 L 3.296875 -2.4375 Z M 2.75 -2.171875 C 2.832031 -2.171875 2.910156 -2.1875 2.984375 -2.21875 C 3.054688 -2.25 3.097656 -2.289062 3.109375 -2.34375 L 3 -2.34375 C 2.882812 -2.34375 2.800781 -2.316406 2.75 -2.265625 Z M 2.90625 -2.140625 C 2.863281 -2.078125 2.863281 -2.035156 2.90625 -2.015625 L 2.890625 -1.9375 L 2.90625 -1.921875 L 2.90625 -1.875 L 3.03125 -1.84375 L 3.09375 -2.09375 C 3.03125 -2.125 2.96875 -2.140625 2.90625 -2.140625 Z M 3.25 -1.875 C 3.269531 -1.851562 3.304688 -1.84375 3.359375 -1.84375 L 3.4375 -1.828125 L 3.484375 -1.828125 C 3.523438 -1.828125 3.554688 -1.832031 3.578125 -1.84375 C 3.597656 -1.863281 3.609375 -1.894531 3.609375 -1.9375 L 3.40625 -1.9375 C 3.363281 -1.9375 3.3125 -1.953125 3.25 -1.984375 L 3.203125 -1.875 Z M 2.46875 -1.890625 L 2.265625 -1.890625 L 2.265625 -1.8125 L 2.46875 -1.8125 Z M 3.5625 -1.6875 C 3.507812 -1.6875 3.453125 -1.65625 3.390625 -1.59375 C 3.335938 -1.539062 3.304688 -1.503906 3.296875 -1.484375 L 3.484375 -1.4375 C 3.617188 -1.488281 3.707031 -1.570312 3.75 -1.6875 Z M 3.25 -1.625 L 3.078125 -1.625 C 3.078125 -1.613281 3.066406 -1.601562 3.046875 -1.59375 C 3.035156 -1.582031 3.03125 -1.578125 3.03125 -1.578125 L 2.984375 -1.484375 C 2.929688 -1.472656 2.898438 -1.445312 2.890625 -1.40625 L 2.890625 -1.3125 C 2.984375 -1.3125 3.03125 -1.300781 3.03125 -1.28125 L 3 -1.203125 C 3 -1.140625 3.007812 -1.097656 3.03125 -1.078125 L 3.15625 -1.125 L 3.234375 -1.203125 L 3.25 -1.4375 L 3.140625 -1.46875 C 3.203125 -1.46875 3.238281 -1.472656 3.25 -1.484375 Z M 3.40625 -1.21875 C 3.457031 -1.21875 3.523438 -1.25 3.609375 -1.3125 C 3.578125 -1.34375 3.492188 -1.359375 3.359375 -1.359375 Z M 3.75 -1.265625 L 3.59375 -1.265625 L 3.515625 -1.125 L 3.703125 -1.125 C 3.734375 -1.15625 3.75 -1.1875 3.75 -1.21875 Z M 3.75 -1.265625 "/></g></g></g><g fill="#ffffff" fill-opacity="1"><g transform="translate(112.57964, 24.32794)"><g><path d="M 10.46875 -12.1875 C 10.738281 -12.207031 10.882812 -12.359375 10.90625 -12.640625 L 10.96875 -15.1875 C 10.96875 -15.320312 10.921875 -15.4375 10.828125 -15.53125 C 10.742188 -15.625 10.632812 -15.671875 10.5 -15.671875 L 0.359375 -15.46875 C 0.078125 -15.445312 -0.0703125 -15.296875 -0.09375 -15.015625 L -0.21875 -11.609375 C -0.21875 -11.453125 -0.164062 -11.328125 -0.0625 -11.234375 C 0.0390625 -11.148438 0.164062 -11.125 0.3125 -11.15625 L 3.4375 -11.734375 L 3.296875 -6.90625 C 3.335938 -6.9375 3.382812 -6.9375 3.4375 -6.90625 L 3.4375 -6.859375 C 3.4375 -6.847656 3.421875 -6.84375 3.390625 -6.84375 L 3.296875 -6.890625 L 3.203125 -4.109375 L 3.234375 -4.109375 C 3.234375 -4.109375 3.226562 -4.101562 3.21875 -4.09375 C 3.207031 -4.09375 3.203125 -4.09375 3.203125 -4.09375 L 3.109375 -0.46875 L 3.109375 -0.40625 C 3.109375 -0.300781 3.15625 -0.207031 3.25 -0.125 C 3.34375 -0.0390625 3.445312 0 3.5625 0 L 6.640625 -0.0625 C 6.921875 -0.09375 7.0625 -0.242188 7.0625 -0.515625 L 7.09375 -0.671875 L 7.0625 -0.671875 C 7.019531 -0.671875 6.972656 -0.695312 6.921875 -0.75 C 6.878906 -0.800781 6.859375 -0.84375 6.859375 -0.875 L 6.9375 -1.015625 C 6.976562 -1.054688 7 -1.101562 7 -1.15625 C 7 -1.164062 6.976562 -1.191406 6.9375 -1.234375 C 6.882812 -1.285156 6.859375 -1.328125 6.859375 -1.359375 C 6.859375 -1.390625 6.882812 -1.429688 6.9375 -1.484375 C 6.9375 -1.566406 6.925781 -1.628906 6.90625 -1.671875 C 6.894531 -1.703125 6.890625 -1.753906 6.890625 -1.828125 C 6.890625 -1.828125 6.90625 -1.84375 6.9375 -1.875 C 6.945312 -1.875 6.957031 -1.875 6.96875 -1.875 C 6.976562 -1.882812 6.988281 -1.898438 7 -1.921875 C 6.9375 -1.953125 6.90625 -1.984375 6.90625 -2.015625 C 6.875 -2.035156 6.859375 -2.070312 6.859375 -2.125 C 6.953125 -2.15625 7 -2.191406 7 -2.234375 C 7 -2.265625 6.960938 -2.3125 6.890625 -2.375 C 6.890625 -2.40625 6.929688 -2.425781 7.015625 -2.4375 C 7.109375 -2.46875 7.132812 -2.503906 7.09375 -2.546875 L 7.015625 -2.59375 C 6.972656 -2.59375 6.9375 -2.601562 6.90625 -2.625 C 6.90625 -2.65625 6.921875 -2.695312 6.953125 -2.75 L 7 -2.84375 L 7 -2.890625 L 6.9375 -2.90625 C 6.90625 -2.90625 6.878906 -2.898438 6.859375 -2.890625 C 6.847656 -2.890625 6.832031 -2.890625 6.8125 -2.890625 C 6.789062 -2.890625 6.78125 -2.90625 6.78125 -2.9375 L 6.78125 -2.984375 L 6.796875 -2.984375 C 6.804688 -2.992188 6.8125 -3 6.8125 -3 C 6.84375 -3.019531 6.890625 -3.03125 6.953125 -3.03125 C 7.015625 -3.03125 7.050781 -3.054688 7.0625 -3.109375 L 7.140625 -3.03125 L 7.15625 -3.15625 L 7.015625 -3.15625 C 6.941406 -3.15625 6.921875 -3.21875 6.953125 -3.34375 C 6.984375 -3.382812 6.984375 -3.429688 6.953125 -3.484375 L 6.90625 -3.546875 L 6.890625 -3.640625 C 6.890625 -3.648438 6.910156 -3.675781 6.953125 -3.71875 C 6.992188 -3.769531 7.015625 -3.8125 7.015625 -3.84375 L 6.984375 -4.046875 L 6.90625 -4.265625 L 6.9375 -4.328125 L 6.953125 -4.328125 L 7 -4.375 L 7 -4.453125 C 7 -4.503906 6.976562 -4.5625 6.9375 -4.625 L 7.046875 -4.671875 C 7.078125 -4.671875 7.109375 -4.6875 7.140625 -4.71875 L 7.203125 -4.71875 L 7.21875 -5.265625 L 7.203125 -5.265625 C 7.191406 -5.265625 7.140625 -5.285156 7.046875 -5.328125 C 7.085938 -5.398438 7.144531 -5.4375 7.21875 -5.4375 L 7.40625 -12.078125 Z M 1.625 -13 L 1.625 -13.078125 L 1.765625 -13.078125 L 1.765625 -13 Z M 3.609375 -12.921875 L 3.609375 -13 L 3.71875 -13 L 3.71875 -12.921875 Z M 1.078125 -12.6875 C 1.023438 -12.71875 0.953125 -12.734375 0.859375 -12.734375 C 0.816406 -12.796875 0.832031 -12.867188 0.90625 -12.953125 L 1.03125 -12.953125 L 1.171875 -12.875 L 1.171875 -12.78125 Z M 3.15625 -12.890625 C 3.15625 -12.847656 3.148438 -12.828125 3.140625 -12.828125 L 3.09375 -12.828125 L 3.078125 -12.796875 L 2.984375 -12.828125 L 2.984375 -12.953125 L 3.15625 -12.953125 Z M -0.109375 -12.796875 L -0.109375 -12.875 L 0.09375 -12.875 L 0.09375 -12.796875 Z M 1.71875 -12.828125 L 1.625 -12.796875 C 1.59375 -12.765625 1.578125 -12.75 1.578125 -12.75 C 1.503906 -12.726562 1.488281 -12.691406 1.53125 -12.640625 C 1.46875 -12.597656 1.425781 -12.59375 1.40625 -12.625 C 1.382812 -12.625 1.359375 -12.628906 1.328125 -12.640625 C 1.296875 -12.660156 1.273438 -12.675781 1.265625 -12.6875 C 1.296875 -12.707031 1.34375 -12.742188 1.40625 -12.796875 C 1.445312 -12.847656 1.503906 -12.875 1.578125 -12.875 L 1.625 -12.875 Z M 0.921875 -12.59375 L 0.921875 -12.6875 L 1.21875 -12.640625 Z M 1.765625 -12.28125 C 1.660156 -12.300781 1.601562 -12.328125 1.59375 -12.359375 C 1.582031 -12.398438 1.609375 -12.453125 1.671875 -12.515625 L 1.71875 -12.515625 L 1.765625 -12.484375 L 1.84375 -12.484375 L 1.84375 -12.328125 Z M 3.515625 -12.4375 C 3.515625 -12.375 3.492188 -12.320312 3.453125 -12.28125 C 3.390625 -12.320312 3.359375 -12.367188 3.359375 -12.421875 L 3.4375 -12.421875 Z M 1.015625 -12.21875 L 1.015625 -12.3125 L 1.15625 -12.3125 L 1.15625 -12.21875 Z M 2.578125 -12.1875 C 2.554688 -12.132812 2.476562 -12.113281 2.34375 -12.125 C 2.3125 -12.125 2.289062 -12.128906 2.28125 -12.140625 L 2.21875 -12.140625 C 2.1875 -12.160156 2.140625 -12.171875 2.078125 -12.171875 C 2.117188 -12.265625 2.179688 -12.3125 2.265625 -12.3125 C 2.285156 -12.3125 2.390625 -12.296875 2.578125 -12.265625 Z M 3.8125 -5.671875 L 3.765625 -5.6875 L 3.84375 -5.734375 L 3.890625 -5.78125 L 3.921875 -5.6875 L 3.8125 -5.640625 Z M 6.359375 -5.515625 C 6.335938 -5.484375 6.316406 -5.46875 6.296875 -5.46875 C 6.296875 -5.46875 6.289062 -5.460938 6.28125 -5.453125 C 6.28125 -5.441406 6.28125 -5.4375 6.28125 -5.4375 L 6.234375 -5.46875 L 6.234375 -5.515625 Z M 3.921875 -4.734375 C 3.921875 -4.691406 3.90625 -4.632812 3.875 -4.5625 C 3.851562 -4.488281 3.828125 -4.441406 3.796875 -4.421875 C 3.828125 -4.390625 3.84375 -4.351562 3.84375 -4.3125 C 3.820312 -4.300781 3.816406 -4.273438 3.828125 -4.234375 C 3.835938 -4.191406 3.84375 -4.164062 3.84375 -4.15625 C 3.84375 -4.125 3.859375 -4.046875 3.890625 -3.921875 L 3.953125 -3.796875 C 3.953125 -3.734375 3.914062 -3.679688 3.84375 -3.640625 L 3.890625 -3.609375 C 3.890625 -3.546875 3.890625 -3.476562 3.890625 -3.40625 C 3.898438 -3.332031 3.898438 -3.265625 3.890625 -3.203125 C 3.859375 -3.117188 3.878906 -3.0625 3.953125 -3.03125 C 3.910156 -2.96875 3.863281 -2.9375 3.8125 -2.9375 C 3.863281 -2.894531 3.890625 -2.875 3.890625 -2.875 C 3.910156 -2.875 3.921875 -2.859375 3.921875 -2.828125 L 3.90625 -2.796875 C 3.894531 -2.785156 3.875 -2.78125 3.84375 -2.78125 L 3.6875 -2.796875 L 3.59375 -2.84375 C 3.5625 -2.84375 3.535156 -2.851562 3.515625 -2.875 L 3.546875 -3.109375 L 3.59375 -3.609375 C 3.625 -3.734375 3.625 -3.800781 3.59375 -3.8125 L 3.59375 -3.96875 C 3.65625 -4.050781 3.6875 -4.117188 3.6875 -4.171875 C 3.6875 -4.191406 3.660156 -4.222656 3.609375 -4.265625 C 3.578125 -4.285156 3.554688 -4.304688 3.546875 -4.328125 C 3.546875 -4.347656 3.5625 -4.375 3.59375 -4.40625 L 3.65625 -4.46875 C 3.625 -4.5 3.609375 -4.53125 3.609375 -4.5625 C 3.609375 -4.59375 3.617188 -4.609375 3.640625 -4.609375 L 3.65625 -4.671875 C 3.644531 -4.703125 3.640625 -4.75 3.640625 -4.8125 C 3.640625 -4.914062 3.695312 -5.054688 3.8125 -5.234375 C 3.8125 -5.148438 3.835938 -5.113281 3.890625 -5.125 C 3.941406 -5.113281 3.96875 -5.082031 3.96875 -5.03125 L 3.953125 -4.9375 Z M 7.1875 -4.3125 C 7.1875 -4.300781 7.175781 -4.296875 7.15625 -4.296875 C 7.15625 -4.296875 7.15625 -4.285156 7.15625 -4.265625 C 7.15625 -4.253906 7.15625 -4.25 7.15625 -4.25 L 7.1875 -4.25 Z M 6.734375 -3.4375 C 6.734375 -3.40625 6.71875 -3.378906 6.6875 -3.359375 L 6.59375 -3.390625 L 6.59375 -3.453125 C 6.601562 -3.441406 6.625 -3.4375 6.65625 -3.4375 Z M 3.859375 -1.765625 C 3.785156 -1.734375 3.765625 -1.691406 3.796875 -1.640625 C 3.796875 -1.585938 3.769531 -1.519531 3.71875 -1.4375 L 3.609375 -1.421875 C 3.535156 -1.523438 3.5 -1.59375 3.5 -1.625 C 3.46875 -1.632812 3.453125 -1.679688 3.453125 -1.765625 C 3.453125 -1.773438 3.46875 -1.78125 3.5 -1.78125 C 3.53125 -1.78125 3.523438 -1.816406 3.484375 -1.890625 C 3.492188 -1.910156 3.5 -1.9375 3.5 -1.96875 L 3.515625 -2.015625 L 3.546875 -2.28125 C 3.546875 -2.320312 3.535156 -2.351562 3.515625 -2.375 C 3.503906 -2.40625 3.5 -2.441406 3.5 -2.484375 C 3.488281 -2.492188 3.503906 -2.53125 3.546875 -2.59375 C 3.585938 -2.664062 3.632812 -2.71875 3.6875 -2.75 C 3.695312 -2.75 3.703125 -2.742188 3.703125 -2.734375 C 3.710938 -2.734375 3.726562 -2.722656 3.75 -2.703125 L 3.8125 -2.6875 Z M 3.859375 -1.765625 "/></g></g></g><g clip-path="url(#e68e941f53)"><path fill="#10a94b" d="M 32.414062 11.421875 L 35.078125 10.863281 C 32.933594 7.164062 28.910156 4.675781 24.296875 4.675781 C 21.257812 4.675781 18.476562 5.753906 16.320312 7.542969 C 18.105469 6.390625 20.234375 5.71875 22.523438 5.71875 C 26.761719 5.71875 30.457031 8.019531 32.414062 11.421875 Z M 32.414062 11.421875 " fill-opacity="1" fill-rule="nonzero"/></g><g clip-path="url(#74d84c1416)"><path fill="#10a94b" d="M 32.898438 21.621094 C 31.113281 25.535156 27.140625 28.261719 22.523438 28.261719 C 20.980469 28.261719 19.503906 27.953125 18.160156 27.402344 C 18.023438 27.421875 17.886719 27.445312 17.753906 27.460938 C 19.652344 28.628906 21.894531 29.308594 24.296875 29.308594 C 30.394531 29.308594 35.464844 24.957031 36.519531 19.214844 C 35.550781 19.914062 34.320312 20.75 32.898438 21.621094 Z M 32.898438 21.621094 " fill-opacity="1" fill-rule="nonzero"/></g><g clip-path="url(#b5fddaef15)"><path fill="#0d5f92" d="M 15.382812 25.007812 C 16.070312 24.851562 16.832031 24.65625 17.644531 24.414062 C 15.585938 22.609375 14.289062 19.976562 14.289062 17.039062 C 14.289062 11.605469 18.734375 7.199219 24.222656 7.199219 C 26.222656 7.199219 28.082031 7.78125 29.640625 8.789062 C 27.757812 7.226562 25.328125 6.285156 22.675781 6.285156 C 16.679688 6.285156 11.820312 11.097656 11.820312 17.039062 C 11.820312 20.199219 13.195312 23.039062 15.382812 25.007812 Z M 15.382812 25.007812 " fill-opacity="1" fill-rule="nonzero"/></g><path fill="#0d5f92" d="M 21.867188 26.601562 C 20.988281 26.851562 20.097656 27.0625 19.199219 27.230469 C 20.292969 27.59375 21.460938 27.796875 22.675781 27.796875 C 25.328125 27.796875 27.757812 26.855469 29.640625 25.289062 C 28.082031 26.296875 26.222656 26.882812 24.222656 26.882812 C 23.410156 26.882812 22.621094 26.785156 21.867188 26.601562 Z M 21.867188 26.601562 " fill-opacity="1" fill-rule="nonzero"/><path fill="#10a94b" d="M 26.359375 14.128906 C 26.925781 14.21875 27.300781 14.308594 27.484375 14.398438 C 27.734375 14.519531 27.914062 14.710938 28.027344 14.972656 C 28.152344 15.257812 28.160156 15.539062 28.050781 15.820312 C 27.941406 16.097656 27.71875 16.328125 27.386719 16.503906 L 27.527344 16.828125 L 27.285156 16.933594 L 27.152344 16.628906 C 26.953125 16.707031 26.769531 16.765625 26.605469 16.804688 C 26.441406 16.839844 26.242188 16.863281 26.011719 16.871094 L 25.621094 15.976562 L 25.738281 15.921875 C 25.863281 16.113281 25.996094 16.25 26.128906 16.34375 C 26.265625 16.433594 26.40625 16.484375 26.558594 16.496094 C 26.707031 16.507812 26.875 16.484375 27.0625 16.421875 L 26.46875 15.050781 C 25.898438 14.964844 25.503906 14.867188 25.28125 14.765625 C 25.058594 14.660156 24.902344 14.496094 24.804688 14.273438 C 24.699219 14.035156 24.703125 13.78125 24.808594 13.519531 C 24.914062 13.253906 25.144531 13.019531 25.5 12.816406 L 25.441406 12.683594 L 25.683594 12.582031 L 25.742188 12.710938 C 26.070312 12.597656 26.429688 12.558594 26.828125 12.59375 L 27.175781 13.398438 L 27.066406 13.445312 C 26.933594 13.285156 26.804688 13.164062 26.679688 13.078125 C 26.550781 12.996094 26.410156 12.9375 26.253906 12.90625 C 26.136719 12.882812 25.996094 12.882812 25.828125 12.90625 Z M 25.578125 13 C 25.449219 13.070312 25.355469 13.152344 25.300781 13.25 C 25.210938 13.40625 25.199219 13.550781 25.257812 13.691406 C 25.292969 13.773438 25.363281 13.847656 25.460938 13.910156 C 25.558594 13.96875 25.753906 14.027344 26.046875 14.078125 Z M 27.308594 16.320312 C 27.453125 16.214844 27.542969 16.097656 27.578125 15.976562 C 27.613281 15.855469 27.601562 15.726562 27.542969 15.59375 C 27.492188 15.476562 27.414062 15.382812 27.300781 15.308594 C 27.191406 15.234375 27.019531 15.171875 26.785156 15.117188 Z M 27.308594 16.320312 " fill-opacity="1" fill-rule="nonzero"/><path fill="#10a94b" d="M 17.003906 18.832031 C 16.941406 18.835938 18.660156 16.261719 18.660156 16.261719 C 18.648438 16.253906 17.9375 15.5 17.9375 15.5 C 17.808594 15.6875 15.621094 19.226562 15.539062 19.355469 C 15.628906 19.414062 20.085938 21.117188 23.511719 22.40625 C 23.644531 22.335938 23.78125 22.269531 23.917969 22.199219 C 20.960938 20.78125 17.179688 18.949219 17.003906 18.832031 Z M 17.003906 18.832031 " fill-opacity="1" fill-rule="nonzero"/><path fill="#10a94b" d="M 18.765625 14.097656 C 18.886719 14.019531 21.085938 12.566406 21.203125 12.488281 C 21.121094 12.296875 20.785156 11.667969 20.742188 11.546875 C 20.5625 11.667969 17.421875 13.644531 17.296875 13.734375 C 17.378906 13.851562 21.3125 18.847656 24.742188 21.753906 C 24.847656 21.695312 24.953125 21.632812 25.0625 21.570312 C 22.601562 18.894531 18.824219 14.179688 18.765625 14.097656 Z M 18.765625 14.097656 " fill-opacity="1" fill-rule="nonzero"/><path fill="#10a94b" d="M 22.429688 11.652344 C 22.574219 11.625 27.671875 10.570312 27.796875 10.539062 C 27.847656 10.753906 29.238281 14.714844 30.566406 17.570312 C 30.703125 17.441406 30.84375 17.308594 30.984375 17.179688 C 30.007812 13.960938 28.582031 9.085938 28.566406 8.984375 C 28.414062 9.007812 21.199219 10.640625 21.050781 10.671875 C 21.082031 10.824219 23.289062 17.453125 25.574219 21.269531 C 25.667969 21.214844 25.757812 21.160156 25.851562 21.105469 C 24.660156 18.074219 22.46875 11.832031 22.429688 11.652344 Z M 22.429688 11.652344 " fill-opacity="1" fill-rule="nonzero"/><g clip-path="url(#ecaa9089ad)"><path fill="#0d5f92" d="M 41.460938 10.433594 L 33.738281 12.054688 L 35.074219 13.378906 C 26.230469 25.742188 11.585938 26.519531 11.585938 26.519531 C 24.132812 28.625 37.972656 17.023438 38.382812 16.65625 L 39.988281 18.25 Z M 41.460938 10.433594 " fill-opacity="1" fill-rule="nonzero"/></g></svg>