<svg xmlns="http://www.w3.org/2000/svg" shape-rendering="geometricPrecision" text-rendering="geometricPrecision" image-rendering="optimizeQuality" fill-rule="evenodd" clip-rule="evenodd" viewBox="0 0 360 511.48"><path fill="#D0401B" d="M144.83 306.61l151.45-26.08L360 429.51l-78.8-.9-64.75 52.53z"/><path fill="#F60" d="M231.94 290.08l-162.37 4.3L0 459.86l78.8-.91 64.75 52.53z"/><path fill="#F5C800" d="M183.21.03c9.35-.4 16.72 2.86 24.15 7.59 9.44 5.98 20.06 17.8 33.17 25.3 18.45 10.54 52.62-4 70.12 21.99 10.2 15.16 10.68 27.04 11.44 38.78.82 12.67 3.04 24.32 16.01 41.47 21.46 28.38 25.93 47.27 14.87 66.96-7.54 13.42-23.41 20.88-27.09 29.38-7.81 18.09.83 31.72-9.87 52.81-7.43 14.62-18.89 24.26-34.16 29.18-12.87 4.14-25.79-1.85-36.1 2.48-18.12 7.61-31.48 25.3-45.89 29.77-5.57 1.73-11.11 2.58-16.65 2.54-5.53.04-11.08-.81-16.64-2.54-14.42-4.47-27.78-22.16-45.89-29.77-10.31-4.33-23.23 1.66-36.11-2.48-15.26-4.92-26.73-14.56-34.16-29.18-10.7-21.09-2.05-34.72-9.87-52.81-3.67-8.5-19.55-15.96-27.09-29.38-11.05-19.69-6.58-38.58 14.88-66.96 12.96-17.15 15.18-28.8 16-41.47.76-11.74 1.24-23.62 11.45-38.78 17.5-25.99 51.66-11.45 70.11-21.99 13.12-7.5 23.73-19.32 33.17-25.3 7.44-4.73 14.81-7.99 24.15-7.59z"/><path fill="#FFDD61" d="M183.21.04c9.35-.41 16.71 2.86 24.15 7.58 9.44 5.98 20.06 17.8 33.17 25.3 14.67 8.38 39.28.91 57.55 10.56L91.95 314.9c-2.45-.2-4.92-.62-7.38-1.41-15.27-4.92-26.73-14.55-34.16-29.18-10.7-21.09-2.05-34.72-9.87-52.81-3.67-8.5-19.55-15.96-27.09-29.38-11.06-19.69-6.58-38.58 14.88-66.96 12.96-17.14 15.18-28.8 16-41.47.76-11.74 1.24-23.62 11.44-38.78 17.51-26 51.68-11.45 70.12-21.99 13.12-7.5 23.74-19.32 33.17-25.3C166.5 2.9 173.87-.37 183.21.04z"/><path fill="#E37E00" d="M182.71 46.79c71.81 0 130.03 58.22 130.03 130.04s-58.22 130.03-130.03 130.03c-71.82 0-130.04-58.21-130.04-130.03S110.89 46.79 182.71 46.79z"/><path fill="#fff" d="M182.71 72.88c57.41 0 103.94 46.54 103.94 103.95 0 57.41-46.53 103.95-103.94 103.95S78.76 234.24 78.76 176.83c0-57.41 46.54-103.95 103.95-103.95z"/><path fill="#383838" fill-rule="nonzero" d="M175.17 115.83h18.94l-.44 11.93c7.96.5 14.91 1.29 20.88 2.39l-4.33 23.12h-22.37c-3.48 0-5.79.54-6.93 1.63-1.15 1.1-1.77 3.19-1.87 6.27l9.4 1.04c11.43 1.3 19.32 4.23 23.64 8.8 4.33 4.58 6.49 10.49 6.49 17.76 0 7.26-.75 13.05-2.24 17.37-1.49 4.33-3.63 7.63-6.41 9.92-5.08 3.88-11.74 6.12-19.99 6.71l-.45 15.07h-19.24l.6-15.07c-9.45-.69-17.46-1.89-24.02-3.58l4.32-23.72c8.26 2.2 16.91 3.29 25.96 3.29 3.78 0 7.31-.2 10.59-.6v-6.26l-9.25-1.05c-11.93-1.19-19.88-4.67-23.86-10.44-3.48-5.07-5.22-11.68-5.22-19.84 0-10.74 2.21-18.54 6.64-23.41 4.42-4.88 10.66-7.86 18.71-8.96l.45-12.37z"/></svg>