<svg width="0" height="0" class="hidden">
  <symbol version="1.1" id="chevron" xmlns="http://www.w3.org/2000/svg" xmlns:xlink="http://www.w3.org/1999/xlink" x="0px" y="0px" enable-background="new 0 0 122.88 122.88" xml:space="preserve" viewBox="0 0 122.88 122.88">
    <g>
      <path d="M61.439,0L61.439,0v0.016c-16.976,0-32.335,6.874-43.443,17.981S0.016,44.464,0.016,61.438H0v0.002l0,0h0.016 c0,16.978,6.874,32.336,17.981,43.444c11.107,11.106,26.467,17.98,43.441,17.98v0.016h0.002l0,0v-0.016 c16.977,0,32.336-6.874,43.443-17.98c11.107-11.108,17.981-26.467,17.981-43.441h0.016v-0.003l0,0h-0.016 c0-16.976-6.874-32.335-17.981-43.442S78.416,0.016,61.442,0.016V0H61.439L61.439,0z M51.181,42.479 c-1.909-1.964-1.864-5.1,0.098-7.01c1.961-1.909,5.1-1.866,7.009,0.098l21.838,22.519l-3.554,3.456l3.569-3.458 c1.91,1.971,1.862,5.116-0.108,7.027c-0.057,0.057-0.115,0.109-0.175,0.161L58.288,87.329c-1.909,1.963-5.048,2.007-7.009,0.097 c-1.962-1.907-2.007-5.045-0.098-7.009l18.473-18.889L51.181,42.479L51.181,42.479z"></path>
    </g>
  </symbol>
  <symbol id="line" xmlns="http://www.w3.org/2000/svg" viewBox="0 0 122.88 23.69">
    <defs></defs>
    <title>horizontal-line</title>
    <path d="M1.51,0H121.37a1.52,1.52,0,0,1,1.51,1.51V22.18a1.52,1.52,0,0,1-1.51,1.51H1.51A1.52,1.52,0,0,1,0,22.18V1.51A1.52,1.52,0,0,1,1.51,0Z"></path>
  </symbol>
  <symbol version="1.1" id="menu" xmlns="http://www.w3.org/2000/svg" xmlns:xlink="http://www.w3.org/1999/xlink" x="0px" y="0px" xml:space="preserve" viewBox="0 0 122.88 95.95">
    <g>
      <path d="M8.94,0h105c4.92,0,8.94,4.02,8.94,8.94l0,0c0,4.92-4.02,8.94-8.94,8.94h-105C4.02,17.88,0,13.86,0,8.94l0,0 C0,4.02,4.02,0,8.94,0L8.94,0z M8.94,78.07h105c4.92,0,8.94,4.02,8.94,8.94l0,0c0,4.92-4.02,8.94-8.94,8.94h-105 C4.02,95.95,0,91.93,0,87.01l0,0C0,82.09,4.02,78.07,8.94,78.07L8.94,78.07z M8.94,39.03h105c4.92,0,8.94,4.02,8.94,8.94l0,0 c0,4.92-4.02,8.94-8.94,8.94h-105C4.02,56.91,0,52.89,0,47.97l0,0C0,43.06,4.02,39.03,8.94,39.03L8.94,39.03z"></path>
    </g>
  </symbol>
  <symbol id="news" xmlns="http://www.w3.org/2000/svg" viewBox="0 0 122.88 113.8">
    <defs></defs>
    <title>loudspeake</title>
    <path d="M0,67.6c-.06-5.83,2.16-11,7.37-12.69l.13-.22a2.91,2.91,0,0,1,.6-.8,3.1,3.1,0,0,1,1.05-.5l.29-.11C34.7,44,46.09,30.07,52.64,20.61c0,9.29,2.33,21.4,6.43,33.12,4.21,12,10.29,23.71,17.71,31.76h0c-7.73-2.2-17.43-5-33.21-2.85a15.17,15.17,0,0,0-1.12,5.06,3.9,3.9,0,0,0,1,3l.24.22c1,.91,1.49,1.36,1.71,2.17a9.17,9.17,0,0,1-.13,3.22l-.09.67c-.37,2.93,1.05,3.53,2.46,4.13s2.51,1.08,3.08,2.69a.68.68,0,0,1,0,.4c-.58,3-2.5,4.64-4.43,6.29-.47.41-.95.82-1.36,1.21l-.06,0c-3.92,3.14-6.57,2.3-8.58-.22-1.58-2-2.68-5-3.7-7.81l-.44-1.22a122.88,122.88,0,0,1-4-15.09l-.34-1.5c-.87.24-1.78.51-2.73.79h0c-1.2.35-2.4.73-3.59,1.11l-.38.14a1.21,1.21,0,0,1-1.33,0C13.47,90,8.2,87,4.68,82a25,25,0,0,1-3.41-6.9A25.74,25.74,0,0,1,0,67.6ZM87.81,16.16a3,3,0,0,1-4.23-.6l-.07-.09a3.05,3.05,0,0,1,.63-4.19C89,7.69,93.84,4.07,98.7.56A3.09,3.09,0,0,1,100.92,0a3.06,3.06,0,0,1,2,1.21l0,.05a3,3,0,0,1,.52,2.23,3,3,0,0,1-1.21,2L87.81,16.16Zm15.79,57.7h0a3,3,0,0,1-2.11-.93,3,3,0,0,1-.85-2.14v-.07a3,3,0,0,1,3.07-3c5.37,0,10.83.2,16.2.3a3.07,3.07,0,0,1,3,3.1,3.09,3.09,0,0,1-.93,2.15,3,3,0,0,1-2.16.86l-16.19-.31Zm.47-15.71a3,3,0,0,1-3.25-2.78V55.3a3.07,3.07,0,0,1,2.77-3.23c5-.4,10.09-.83,15.1-1.15a3.06,3.06,0,0,1,3.24,2.81h0a3,3,0,0,1-.73,2.21A3.08,3.08,0,0,1,119.12,57c-4.85.48-10.18.88-15.05,1.14Zm-2.16-14.59a3.06,3.06,0,0,1-3.78-2.11v0a3,3,0,0,1,.27-2.3,3.1,3.1,0,0,1,1.83-1.46c5.21-1.37,10.4-3.05,15.61-4.45a3,3,0,0,1,2.3.27,3.08,3.08,0,0,1,1.45,1.8v0a3.07,3.07,0,0,1-2.1,3.78l-15.59,4.45Zm-6.3-14.32a3.05,3.05,0,0,1-4.09-1.37,3,3,0,0,1-.17-2.33,3.09,3.09,0,0,1,1.53-1.77l15-7.49a3,3,0,0,1,4.09,1.37,3,3,0,0,1,.16,2.33,3.07,3.07,0,0,1-1.53,1.76l-15,7.5ZM58.75,12c.13-.15.27-.29.4-.42a4.46,4.46,0,0,1,1.48-1.11h0a3.58,3.58,0,0,1,2-.08c2.25.36,4.66,2,7.11,4.51,6,6.19,12.32,18,16.82,30.41s7.2,25.36,5.85,33.77c-.51,3.13-1.57,5.66-3.31,7.33l-.09.07a5.64,5.64,0,0,1-2.47,1,2.43,2.43,0,0,0-.25-.2C80.3,83,75,75.9,70.54,67.55c1.14.22,2.6-.63,4-2.08,7-7.38,3.56-20.28-5.17-23.27C65.81,41,62.27,41,60.87,41.69l-.15.08C57.52,29.42,56.61,18,58.75,12Z"></path>
  </symbol>
  <symbol xmlns="http://www.w3.org/2000/svg" shape-rendering="geometricPrecision" text-rendering="geometricPrecision" image-rendering="optimizeQuality" fill-rule="evenodd" clip-rule="evenodd" viewBox="0 0 512 379.51" id="quote">
    <path d="M212.27 33.98C131.02 56.52 78.14 103.65 64.99 185.67c-3.58 22.32 1.42 5.46 16.55-5.86 49.4-36.96 146.53-23.88 160.01 60.56 27.12 149.48-159.79 175.36-215.11 92.8-12.87-19.19-21.39-41.59-24.46-66.19C-11.35 159.99 43.48 64.7 139.8 19.94c17.82-8.28 36.6-14.76 56.81-19.51 10.12-2.05 17.47 3.46 20.86 12.77 2.87 7.95 3.85 16.72-5.2 20.78zm267.78 0c-81.25 22.54-134.14 69.67-147.28 151.69-3.58 22.32 1.42 5.46 16.55-5.86 49.4-36.96 146.53-23.88 160 60.56 27.13 149.48-159.78 175.36-215.1 92.8-12.87-19.19-21.39-41.59-24.46-66.19C256.43 159.99 311.25 64.7 407.58 19.94 425.4 11.66 444.17 5.18 464.39.43c10.12-2.05 17.47 3.46 20.86 12.77 2.87 7.95 3.85 16.72-5.2 20.78z"></path>
  </symbol>
  <symbol version="1.1" id="report" xmlns="http://www.w3.org/2000/svg" xmlns:xlink="http://www.w3.org/1999/xlink" x="0px" y="0px" xml:space="preserve" viewBox="0 0 69.61 122.88">
    <g>
      <path d="M12.72,0h44.17c3.5,0,6.71,1.44,9,3.72c2.32,2.32,3.72,5.49,3.72,9v97.43c0,3.5-1.44,6.71-3.72,9 c-2.32,2.32-5.49,3.72-9,3.72H12.72c-3.5,0-6.71-1.44-9-3.72c-2.32-2.32-3.72-5.49-3.72-9V12.72c0-3.5,1.44-6.71,3.72-9 C6.05,1.4,9.22,0,12.72,0L12.72,0z M36.43,38.34l12.95,0.04c-0.01,3.45-1.4,6.76-3.86,9.18c-0.58,0.57-1.21,1.09-1.89,1.54 L36.43,38.34L36.43,38.34L36.43,38.34z M12.81,63.87c-0.71,0-1.29-0.58-1.29-1.31c0-0.72,0.58-1.31,1.29-1.31h32.36 c0.71,0,1.29,0.58,1.29,1.31c0,0.72-0.58,1.31-1.29,1.31H12.81L12.81,63.87z M13.02,93.65c-0.71,0-1.29-0.58-1.29-1.31 c0-0.72,0.58-1.31,1.29-1.31H56.8c0.71,0,1.29,0.58,1.29,1.31c0,0.72-0.58,1.31-1.29,1.31H13.02L13.02,93.65z M13.02,83.86 c-0.71,0-1.29-0.58-1.29-1.31c0-0.72,0.58-1.31,1.29-1.31H56.8c0.71,0,1.29,0.58,1.29,1.31c0,0.72-0.58,1.31-1.29,1.31H13.02 L13.02,83.86z M12.81,73.46c-0.71,0-1.29-0.58-1.29-1.31c0-0.72,0.58-1.31,1.29-1.31h13.61c0.71,0,1.29,0.58,1.29,1.31 c0,0.72-0.58,1.31-1.29,1.31H12.81L12.81,73.46z M31.45,73.46c-0.71,0-1.29-0.58-1.29-1.31c0-0.72,0.58-1.31,1.29-1.31H56.8 c0.71,0,1.29,0.58,1.29,1.31c0,0.72-0.58,1.31-1.29,1.31H31.45L31.45,73.46z M33.55,37.75l6.94,12.03 c-2.11,1.22-4.51,1.86-6.94,1.86c-7.67,0-13.89-6.22-13.89-13.89c0-6.89,5.05-12.74,11.87-13.74L33.55,37.75L33.55,37.75z M35.1,35.77l-0.69-13.84c-0.01-0.27,0.2-0.51,0.47-0.52c0.08,0,0.17-0.01,0.28-0.01c0.09,0,0.18,0,0.28-0.01 c3.8-0.04,7.29,1.4,9.9,3.8c2.61,2.4,4.33,5.76,4.6,9.56c0.02,0.27-0.19,0.51-0.46,0.53l-13.85,0.99 c-0.27,0.02-0.51-0.19-0.53-0.46C35.11,35.8,35.1,35.78,35.1,35.77L35.1,35.77L35.1,35.77z M35.43,22.38l0.64,12.86l12.84-0.92 c-0.36-3.33-1.93-6.27-4.24-8.4c-2.43-2.24-5.68-3.58-9.22-3.54L35.43,22.38L35.43,22.38L35.43,22.38z M34.79,107.24 c2.88,0,5.24,2.32,5.24,5.24c0,2.88-2.32,5.24-5.24,5.24c-2.88,0-5.24-2.32-5.24-5.24C29.55,109.6,31.88,107.24,34.79,107.24 L34.79,107.24z M3.61,103.26h62.35V14.62H3.61V103.26L3.61,103.26z"></path>
    </g>
  </symbol>
  <symbol version="1.1" id="search" xmlns="http://www.w3.org/2000/svg" xmlns:xlink="http://www.w3.org/1999/xlink" x="0px" y="0px" enable-background="new 0 0 122.879 119.799" xml:space="preserve" viewBox="0 0 122.879 119.799">
    <g>
      <path d="M49.988,0h0.016v0.007C63.803,0.011,76.298,5.608,85.34,14.652c9.027,9.031,14.619,21.515,14.628,35.303h0.007v0.033v0.04 h-0.007c-0.005,5.557-0.917,10.905-2.594,15.892c-0.281,0.837-0.575,1.641-0.877,2.409v0.007c-1.446,3.66-3.315,7.12-5.547,10.307 l29.082,26.139l0.018,0.016l0.157,0.146l0.011,0.011c1.642,1.563,2.536,3.656,2.649,5.78c0.11,2.1-0.543,4.248-1.979,5.971 l-0.011,0.016l-0.175,0.203l-0.035,0.035l-0.146,0.16l-0.016,0.021c-1.565,1.642-3.654,2.534-5.78,2.646 c-2.097,0.111-4.247-0.54-5.971-1.978l-0.015-0.011l-0.204-0.175l-0.029-0.024L78.761,90.865c-0.88,0.62-1.778,1.209-2.687,1.765 c-1.233,0.755-2.51,1.466-3.813,2.115c-6.699,3.342-14.269,5.222-22.272,5.222v0.007h-0.016v-0.007 c-13.799-0.004-26.296-5.601-35.338-14.645C5.605,76.291,0.016,63.805,0.007,50.021H0v-0.033v-0.016h0.007 c0.004-13.799,5.601-26.296,14.645-35.338C23.683,5.608,36.167,0.016,49.955,0.007V0H49.988L49.988,0z M50.004,11.21v0.007h-0.016 h-0.033V11.21c-10.686,0.007-20.372,4.35-27.384,11.359C15.56,29.578,11.213,39.274,11.21,49.973h0.007v0.016v0.033H11.21 c0.007,10.686,4.347,20.367,11.359,27.381c7.009,7.012,16.705,11.359,27.403,11.361v-0.007h0.016h0.033v0.007 c10.686-0.007,20.368-4.348,27.382-11.359c7.011-7.009,11.358-16.702,11.36-27.4h-0.006v-0.016v-0.033h0.006 c-0.006-10.686-4.35-20.372-11.358-27.384C70.396,15.56,60.703,11.213,50.004,11.21L50.004,11.21z"></path>
    </g>
  </symbol>
  <symbol version="1.1" id="support" xmlns="http://www.w3.org/2000/svg" xmlns:xlink="http://www.w3.org/1999/xlink" x="0px" y="0px" xml:space="preserve" viewBox="0 0 121.93 122.88">
    <g>
      <path d="M93.8,36.02c0,1.13-0.92,2.05-2.05,2.05s-2.05-0.92-2.05-2.05v-7.99c0-3.13-0.81-6.33-2.21-9.25 c-1.46-3.04-3.54-5.8-6.01-7.89c-5.27-4.47-12.18-6.72-19.13-6.8c-7.04-0.08-14.09,2.07-19.51,6.39c-2.62,2.09-5.01,4.82-6.68,7.88 c-1.45,2.66-2.35,5.57-2.35,8.5v9.24l0.06-0.02l1.85,2.29c-0.14-3.67-0.16-7.61,0-11.08c0.12-1.19,0.35-2.38,0.68-3.57 c2.99-10.7,15.2-16.95,25.82-16.37c8.22,0.45,15.94,3.46,20.82,9.08C89.84,24.3,88.08,34,87.85,43.6v0c1.53,0.47,2.51,1.43,2.91,3 c0.44,1.74-0.04,4.18-1.51,7.52l0,0c-0.03,0.06-0.06,0.12-0.09,0.18l-6.28,10.34c-2.42,3.98-4.88,7.98-8.15,11.05l-0.1,0.09 c0.38,0.59,0.8,1.26,1.23,1.97c1.02,1.65,2.17,3.49,3.28,5.06c6.89,5.19,24.54,6.38,31.25,10.12c2.2,1.23,4.19,2.79,5.78,4.9 c3.95,5.22,4.26,12.44,5.77,18.81c-0.35,3.76-2.48,5.92-6.68,6.24H6.68c-4.19-0.32-6.32-2.48-6.68-6.24 c1.51-6.37,1.81-13.59,5.77-18.81c1.6-2.11,3.58-3.67,5.78-4.9c6.72-3.75,24.38-4.94,31.26-10.13c1.08-2.4,2.2-6.13,2.9-8.44 l0.01-0.05h0L46,73.42c0.03-0.11,0.08-0.2,0.13-0.3c-1.97-2.35-3.67-4.99-5.3-7.58l-5.39-8.57c-0.41-0.03-0.81-0.1-1.21-0.23 c-4.32-1.36-7.9-10.96-7.2-15.49c0.4-2.57,1.31-3.49,2.78-4.05c-0.07-0.21-0.11-0.43-0.11-0.66v-9.68c0-3.64,1.09-7.21,2.86-10.45 c1.94-3.56,4.71-6.73,7.72-9.13C46.44,2.36,54.43-0.08,62.37,0c7.88,0.09,15.73,2.65,21.75,7.76c2.9,2.46,5.35,5.69,7.06,9.26 c1.66,3.48,2.63,7.28,2.63,11.02V36.02L93.8,36.02z M72.65,77.41c-3,2.2-6.62,3.57-11.23,3.56c-5.34-0.01-9.36-2.05-12.66-5.07 c-0.24-0.22-0.48-0.44-0.71-0.67c-0.91,3.03-2.52,8.37-4.03,10.67c1.74,10,5.61,17.15,9.14,24.76l4.86-16.87 c-0.62-1.05-0.91-1.97-0.95-2.76c-2.49,1.4-5.17,2.33-7.96,2.95c-3.04-3.46-3.3-7.07,0-10.9c3.73,0.94,7.16,2.54,10.31,4.7 c0.75-0.25,1.6-0.31,2.42-0.18c3.35-2.41,7.65-3.36,11.4-5.16c4.45,4.33,3.97,8.32-0.4,12.03c-2.64-0.61-5.14-1.57-7.52-2.83 c-0.03,0.64-0.19,1.36-0.5,2.15l4.86,16.87c3.76-7.91,7.67-15.76,8.56-24.74c-1.49-1.92-3.07-4.44-4.43-6.64 C73.4,78.62,73.01,77.99,72.65,77.41L72.65,77.41z M45.71,74.35L45.71,74.35l0.01-0.05h0L45.71,74.35L45.71,74.35L45.71,74.35z M38.43,45.63l2.39,6.55c0.26,0.76,0.34,1.42,0.23,1.99l0.02-0.02c3.74,4.15,8.35,7.15,13.9,8.91c0.28-0.64,0.67-1.2,1.24-1.64 c1.69-1.31,6.65-1.19,8.18,0.08c1.28,1.06,1.3,3.5,0.35,4.77c-1.98,2.65-10.22,0.42-12.98-0.47c-4.4-1.42-8.41-4.83-12.06-7.89 l3.75,5.96c2.21,3.51,4.52,7.09,7.4,9.72c2.77,2.53,6.12,4.24,10.56,4.25c4.81,0.01,8.32-1.77,11.18-4.44 c2.97-2.78,5.31-6.59,7.62-10.39l6.2-10.22c1.16-2.64,1.58-4.41,1.31-5.44c-0.16-0.62-0.84-0.92-2-0.98 c-0.25-0.01-0.5-0.01-0.76-0.01c-0.28,0.01-0.57,0.03-0.87,0.05c-0.17,0.01-0.33,0-0.48-0.03c-0.55,0.03-1.12-0.01-1.7-0.09 l2.13-9.4c-15.77,2.48-27.56-9.22-44.22-2.34l1.2,11.08c-0.67,0.03-1.31,0.01-1.9-0.08v0C38.89,45.59,38.65,45.61,38.43,45.63 L38.43,45.63z"></path>
    </g>
  </symbol>
  <symbol version="1.1" id="wealth" xmlns="http://www.w3.org/2000/svg" xmlns:xlink="http://www.w3.org/1999/xlink" x="0px" y="0px" xml:space="preserve" viewBox="0 0 122.88 96.2">
    <g>
      <path d="M0,42.92h24.83V87.1H0V42.92L0,42.92z M85.36,20.49c9.01,0,16.32,7.3,16.32,16.32 c0,9.01-7.3,16.32-16.32,16.32c-9.01,0-16.32-7.3-16.32-16.32C69.04,27.8,76.34,20.49,85.36,20.49L85.36,20.49z M56.72,0 C64.49,0,70.8,6.3,70.8,14.08c0,7.77-6.3,14.08-14.08,14.08c-7.77,0-14.08-6.3-14.08-14.08C42.64,6.31,48.94,0,56.72,0L56.72,0z M58.15,17.07c0-0.46-0.11-0.81-0.34-1.07c-0.23-0.26-0.62-0.5-1.18-0.73c-0.56-0.23-1.08-0.46-1.55-0.69 c-0.47-0.24-0.89-0.51-1.23-0.82c-0.35-0.31-0.61-0.67-0.79-1.07c-0.19-0.41-0.27-0.9-0.27-1.48c0-0.97,0.33-1.77,0.98-2.39 c0.65-0.62,1.52-1,2.61-1.1v-1.3h1.37v1.33c1.05,0.15,1.88,0.58,2.48,1.29c0.6,0.71,0.9,1.61,0.9,2.69H58.2 c0-0.6-0.12-1.06-0.35-1.38c-0.23-0.32-0.56-0.48-0.98-0.48c-0.38,0-0.68,0.12-0.88,0.35c-0.21,0.24-0.31,0.57-0.31,0.98 c0,0.42,0.12,0.76,0.36,1.01c0.25,0.25,0.63,0.49,1.16,0.72c0.53,0.23,1.04,0.46,1.51,0.7c0.47,0.25,0.88,0.52,1.22,0.83 c0.35,0.31,0.62,0.68,0.81,1.09c0.19,0.41,0.3,0.9,0.3,1.49c0,0.98-0.31,1.78-0.94,2.4c-0.63,0.62-1.47,0.98-2.54,1.08v1.22H56.2 v-1.22c-1.25-0.14-2.21-0.56-2.88-1.28c-0.67-0.73-1.01-1.68-1.01-2.87h2.91c0,0.66,0.14,1.15,0.43,1.5 c0.29,0.34,0.7,0.52,1.23,0.52c0.39,0,0.69-0.12,0.92-0.35C58.02,17.8,58.14,17.48,58.15,17.07L58.15,17.07L58.15,17.07z M87.01,40.27c0-0.53-0.13-0.94-0.39-1.24c-0.26-0.3-0.71-0.58-1.37-0.85c-0.65-0.26-1.25-0.54-1.8-0.8 c-0.55-0.27-1.03-0.59-1.43-0.95c-0.4-0.36-0.7-0.77-0.92-1.24c-0.22-0.47-0.31-1.04-0.31-1.71c0-1.13,0.38-2.05,1.14-2.77 c0.75-0.72,1.76-1.15,3.02-1.27v-1.51h1.59v1.55c1.21,0.18,2.17,0.68,2.87,1.5c0.7,0.82,1.05,1.86,1.05,3.12h-3.38 c0-0.7-0.14-1.22-0.4-1.6c-0.26-0.37-0.65-0.56-1.14-0.56c-0.44,0-0.78,0.14-1.02,0.41c-0.24,0.27-0.36,0.66-0.36,1.14 c0,0.49,0.14,0.88,0.42,1.17c0.28,0.29,0.72,0.57,1.34,0.83c0.62,0.26,1.2,0.54,1.75,0.81c0.55,0.28,1.02,0.61,1.42,0.96 c0.4,0.36,0.71,0.78,0.94,1.26c0.23,0.48,0.34,1.05,0.34,1.72c0,1.14-0.36,2.07-1.09,2.78c-0.72,0.71-1.7,1.14-2.95,1.25v1.41 h-1.59v-1.42c-1.45-0.16-2.56-0.65-3.34-1.49c-0.77-0.84-1.16-1.95-1.16-3.33h3.37c0,0.76,0.17,1.33,0.5,1.73 c0.33,0.39,0.81,0.6,1.43,0.6c0.45,0,0.8-0.14,1.07-0.4C86.87,41.11,87,40.74,87.01,40.27L87.01,40.27L87.01,40.27z M85.36,23.7 c7.23,0,13.1,5.86,13.1,13.1c0,7.23-5.86,13.1-13.1,13.1c-7.23,0-13.1-5.86-13.1-13.1C72.26,29.56,78.13,23.7,85.36,23.7 L85.36,23.7z M29.83,83.39V46.47h16.61c7.04,1.26,14.08,5.08,21.12,9.51h12.9c5.84,0.35,8.9,6.27,3.22,10.16 c-4.52,3.32-10.49,3.13-16.61,2.58c-4.22-0.21-4.4,5.46,0,5.48c1.53,0.12,3.19-0.24,4.64-0.24c7.64-0.01,13.92-1.47,17.77-7.5 l1.93-4.51l19.19-9.51c9.6-3.16,16.42,6.88,9.35,13.87c-13.9,10.11-28.15,18.43-42.73,25.15c-10.59,6.44-21.18,6.22-31.76,0 L29.83,83.39L29.83,83.39z"></path>
    </g>
  </symbol>
</svg>